 <svg xmlns="http://www.w3.org/2000/svg" viewBox="0 0 218.29 3.65">
                    <g id="Layer_2" data-name="Layer 2">
                        <g id="Layer_1-2" data-name="Layer 1">
                            <path
                                d="M.42,2.74,0,.36H.64l.13,1c0,.12,0,.25,0,.37s0,.25,0,.37h0l.06-.37c0-.12,0-.25.07-.37l.23-1h.52L2,1.4,2,1.77c0,.12,0,.25.07.37h0c0-.12,0-.25,0-.37s0-.25,0-.37l.13-1h.6L2.54,2.74h-.8l-.18-1c0-.09,0-.18-.05-.28a2.51,2.51,0,0,0,0-.27h0c0,.09,0,.18,0,.27a2.33,2.33,0,0,1,0,.28l-.17,1Z" />
                            <path
                                d="M4.52,2.74,4.1.36h.64l.13,1c0,.12,0,.25,0,.37s0,.25,0,.37H5L5,1.77c0-.12,0-.25.07-.37l.23-1h.52l.23,1,.06.37c0,.12.05.25.07.37h0c0-.12,0-.25,0-.37s0-.25,0-.37l.13-1H7L6.64,2.74h-.8l-.18-1c0-.09,0-.18,0-.28a2.51,2.51,0,0,0,0-.27h0c0,.09,0,.18,0,.27a2.33,2.33,0,0,1,0,.28l-.17,1Z" />
                            <path
                                d="M8.62,2.74,8.2.36h.64L9,1.4c0,.12,0,.25,0,.37s0,.25,0,.37h0l.06-.37c0-.12,0-.25.07-.37l.23-1H10l.23,1,.06.37c0,.12,0,.25.07.37h0c0-.12,0-.25,0-.37s0-.25,0-.37l.14-1h.59l-.39,2.38h-.8l-.18-1c0-.09,0-.18,0-.28a2.51,2.51,0,0,0,0-.27h0c0,.09,0,.18,0,.27a2.33,2.33,0,0,1,0,.28l-.17,1Z" />
                            <path
                                d="M12.7,2.78a.35.35,0,0,1-.26-.11.36.36,0,0,1-.1-.27.36.36,0,0,1,.1-.27A.35.35,0,0,1,12.7,2a.33.33,0,0,1,.26.11.39.39,0,0,1,0,.54A.33.33,0,0,1,12.7,2.78Z" />
                            <path
                                d="M14.64,2.74V.36h.9a2,2,0,0,1,.36,0,.82.82,0,0,1,.3.12.61.61,0,0,1,.21.24.81.81,0,0,1,.08.37.77.77,0,0,1-.11.42.73.73,0,0,1-.28.27l.52.92h-.7l-.41-.8h-.24v.8Zm.63-1.3h.23c.25,0,.37-.1.37-.31a.23.23,0,0,0-.09-.21A.55.55,0,0,0,15.5.86h-.23Z" />
                            <path d="M18,2.74V.36h1.54V.89h-.91v.37h.77v.53h-.77v.42h.94v.53Z" />
                            <path
                                d="M22.25,2.78a1.5,1.5,0,0,1-.47-.08,1.11,1.11,0,0,1-.38-.22,1,1,0,0,1-.25-.38,1.45,1.45,0,0,1,0-1.06,1,1,0,0,1,.26-.39A1.15,1.15,0,0,1,21.78.4a1.44,1.44,0,0,1,.46-.08,1.06,1.06,0,0,1,.45.09A1.63,1.63,0,0,1,23,.63L22.68,1A.68.68,0,0,0,22.5.91a.6.6,0,0,0-.24-.05A.51.51,0,0,0,22,.91a.46.46,0,0,0-.18.13.66.66,0,0,0-.12.22.85.85,0,0,0,0,.29.78.78,0,0,0,.15.51.57.57,0,0,0,.47.18h.1l.08,0V1.87h-.35V1.36h.9V2.49a.85.85,0,0,1-.34.2A1.14,1.14,0,0,1,22.25,2.78Z" />
                            <path d="M24.61,2.74V.36h.62V2.74Z" />
                            <path
                                d="M27.61,2.78a1.6,1.6,0,0,1-.47-.08,1.27,1.27,0,0,1-.43-.26L27.07,2a1.24,1.24,0,0,0,.27.17.74.74,0,0,0,.28.06.56.56,0,0,0,.21,0,.15.15,0,0,0,.06-.13.14.14,0,0,0,0-.07l-.07-.06-.1-.05-.13,0-.3-.12-.18-.1a.67.67,0,0,1-.15-.14.72.72,0,0,1-.11-.19.85.85,0,0,1,0-.23.72.72,0,0,1,.06-.29A.84.84,0,0,1,27,.54a.85.85,0,0,1,.28-.16,1,1,0,0,1,.36-.06,1.19,1.19,0,0,1,.41.08,1,1,0,0,1,.38.24L28.15,1A1.34,1.34,0,0,0,27.92.9a.86.86,0,0,0-.24,0,.3.3,0,0,0-.18,0,.13.13,0,0,0-.07.12.14.14,0,0,0,.09.13l.26.11.29.11a.74.74,0,0,1,.34.25.63.63,0,0,1,.12.4.72.72,0,0,1-.06.29.69.69,0,0,1-.18.24.92.92,0,0,1-.29.17A1.18,1.18,0,0,1,27.61,2.78Z" />
                            <path d="M30.38,2.74V.89h-.62V.36h1.88V.89H31V2.74Z" />
                            <path d="M33.08,2.74V.36h.63V2.74Z" />
                            <path
                                d="M35.11,2.74l.64-1.22L35.14.36h.7L36,.75a1.42,1.42,0,0,1,.08.18l.09.21h0c0-.07.05-.14.07-.21a1.34,1.34,0,0,0,.07-.18l.14-.39h.67l-.6,1.19.64,1.19h-.7l-.19-.43-.09-.19-.08-.2h0c0,.07-.06.14-.08.2s-.05.13-.08.19l-.17.43Z" />
                            <path
                                d="M38.57,2.74V.36h.9a2.2,2.2,0,0,1,.36,0,.82.82,0,0,1,.3.12.61.61,0,0,1,.21.24.81.81,0,0,1,.08.37.77.77,0,0,1-.11.42.73.73,0,0,1-.28.27l.52.92h-.7l-.41-.8H39.2v.8Zm.63-1.3h.22c.26,0,.38-.1.38-.31a.23.23,0,0,0-.09-.21.57.57,0,0,0-.29-.06H39.2Z" />
                            <path d="M42,2.74V.36h.63V2.21h.9v.53Z" />
                            <path
                                d="M45,2.74V.36h.87a2.21,2.21,0,0,1,.37,0,.91.91,0,0,1,.3.13.72.72,0,0,1,.21.25.81.81,0,0,1,.08.37.89.89,0,0,1-.08.38.75.75,0,0,1-.21.26.92.92,0,0,1-.3.14,1,1,0,0,1-.36.05h-.25v.76Zm.63-1.25h.22a.38.38,0,0,0,.28-.09.33.33,0,0,0,.09-.25.23.23,0,0,0-.1-.22.47.47,0,0,0-.28-.07h-.21Z" />
                            <path
                                d="M48.11,2.78a.36.36,0,0,1-.36-.38A.36.36,0,0,1,48.11,2a.37.37,0,0,1,.27.11.41.41,0,0,1,0,.54A.37.37,0,0,1,48.11,2.78Z" />
                            <path
                                d="M51.08,2.78a1.26,1.26,0,0,1-.43-.08,1,1,0,0,1-.36-.22A1.14,1.14,0,0,1,50,2.1,1.44,1.44,0,0,1,50,1.57a1.25,1.25,0,0,1,.1-.53A1,1,0,0,1,50.3.65,1.15,1.15,0,0,1,50.67.4,1.22,1.22,0,0,1,51.1.32a1,1,0,0,1,.42.09,1.54,1.54,0,0,1,.31.22L51.51,1a.68.68,0,0,0-.18-.13.54.54,0,0,0-.22-.05.46.46,0,0,0-.2.05.48.48,0,0,0-.16.13.51.51,0,0,0-.11.22.84.84,0,0,0,0,.29.84.84,0,0,0,.14.51.46.46,0,0,0,.37.18.49.49,0,0,0,.25-.06A.86.86,0,0,0,51.53,2l.33.39a1,1,0,0,1-.35.26A1,1,0,0,1,51.08,2.78Z" />
                            <path
                                d="M54.14,2.78a1.25,1.25,0,0,1-.45-.08,1,1,0,0,1-.35-.25,1,1,0,0,1-.22-.39A1.42,1.42,0,0,1,53,1.54,1.39,1.39,0,0,1,53.12,1a1.09,1.09,0,0,1,.22-.38A.85.85,0,0,1,53.69.4a1.25,1.25,0,0,1,.45-.08,1.33,1.33,0,0,1,.45.08.92.92,0,0,1,.35.24,1.09,1.09,0,0,1,.22.38,1.62,1.62,0,0,1,.08.52,1.67,1.67,0,0,1-.08.52,1,1,0,0,1-.22.39,1.07,1.07,0,0,1-.35.25A1.33,1.33,0,0,1,54.14,2.78Zm0-.54a.39.39,0,0,0,.34-.19.92.92,0,0,0,.12-.51.88.88,0,0,0-.12-.5.41.41,0,0,0-.34-.18A.39.39,0,0,0,53.8,1a.88.88,0,0,0-.12.5.92.92,0,0,0,.12.51A.38.38,0,0,0,54.14,2.24Z" />
                            <path
                                d="M56.76,2.74V.36h.67l.36,1,.06.21.06.21h0A1.72,1.72,0,0,0,58,1.54l.06-.21.34-1h.67V2.74h-.57V2c0-.07,0-.13,0-.21a1.5,1.5,0,0,0,0-.22l0-.22a1.68,1.68,0,0,0,0-.2h0l-.2.57-.29.78h-.33l-.3-.78-.19-.57h0c0,.06,0,.12,0,.2l0,.22c0,.08,0,.15,0,.22a1.55,1.55,0,0,1,0,.21v.7Z" />
                            <path d="M62.55,3.65V0H63V3.65Z" />
                            <path
                                d="M66.63,2.74,66.21.36h.64l.14,1c0,.12,0,.25,0,.37s0,.25,0,.37h0c0-.12,0-.24.07-.37l.06-.37.23-1H68l.23,1,.06.37c0,.12,0,.25.07.37h0c0-.12,0-.25,0-.37s0-.25,0-.37l.13-1h.59l-.39,2.38H68l-.19-1c0-.09,0-.18,0-.28l0-.27h0a2.51,2.51,0,0,1,0,.27,2.33,2.33,0,0,1,0,.28l-.17,1Z" />
                            <path
                                d="M70.73,2.74,70.31.36H71l.13,1c0,.12,0,.25,0,.37s0,.25,0,.37h0c0-.12,0-.24.07-.37l.06-.37.23-1h.52l.23,1c0,.12,0,.24.07.37l.06.37h0c0-.12,0-.25,0-.37s0-.25,0-.37l.13-1h.6l-.4,2.38h-.79l-.19-1a2.36,2.36,0,0,1,0-.28,2.51,2.51,0,0,1,0-.27h0a2.51,2.51,0,0,1,0,.27,2.33,2.33,0,0,1,0,.28l-.17,1Z" />
                            <path
                                d="M74.83,2.74,74.41.36h.64l.14,1c0,.12,0,.25,0,.37s0,.25,0,.37h0c0-.12,0-.24.07-.37l.06-.37.23-1h.52l.23,1c0,.12,0,.24.07.37l.06.37h0c0-.12,0-.25,0-.37s0-.25,0-.37l.13-1h.59L77,2.74h-.79l-.19-1c0-.09,0-.18,0-.28l0-.27h0a2.51,2.51,0,0,1,0,.27,2.33,2.33,0,0,1,0,.28l-.17,1Z" />
                            <path
                                d="M78.91,2.78a.36.36,0,0,1-.36-.38A.36.36,0,0,1,78.91,2a.37.37,0,0,1,.27.11.41.41,0,0,1,0,.54A.37.37,0,0,1,78.91,2.78Z" />
                            <path d="M80.85,2.74V.36h.63V2.21h.9v.53Z" />
                            <path d="M83.88,2.74V.36h.63V2.74Z" />
                            <path
                                d="M87.93,3.42a1.44,1.44,0,0,1-.37,0,1.23,1.23,0,0,1-.31-.14A.93.93,0,0,1,87,3a1.27,1.27,0,0,1-.18-.27,1,1,0,0,1-.33-.15.88.88,0,0,1-.26-.25A1.2,1.2,0,0,1,86.08,2a2.06,2.06,0,0,1,0-.45A1.39,1.39,0,0,1,86.11,1a1.09,1.09,0,0,1,.22-.38A.85.85,0,0,1,86.68.4a1.25,1.25,0,0,1,.45-.08,1.33,1.33,0,0,1,.45.08.92.92,0,0,1,.35.24,1.09,1.09,0,0,1,.22.38,1.62,1.62,0,0,1,.08.52,1.4,1.4,0,0,1-.19.77,1,1,0,0,1-.54.41.42.42,0,0,0,.23.16.84.84,0,0,0,.27,0h.15l.12,0,.11.45a.75.75,0,0,1-.18.07Zm-.8-1.15a.39.39,0,0,0,.34-.19,1,1,0,0,0,.12-.54.88.88,0,0,0-.12-.5.41.41,0,0,0-.34-.18.38.38,0,0,0-.34.18.88.88,0,0,0-.12.5,1,1,0,0,0,.12.54A.37.37,0,0,0,87.13,2.27Z" />
                            <path
                                d="M90.72,2.78A.94.94,0,0,1,90,2.49a1.38,1.38,0,0,1-.24-.9V.36h.63v1.3a.84.84,0,0,0,.09.45.28.28,0,0,0,.27.13A.3.3,0,0,0,91,2.11a.84.84,0,0,0,.09-.45V.36h.61V1.59a1.38,1.38,0,0,1-.24.9A.9.9,0,0,1,90.72,2.78Z" />
                            <path d="M93.29,2.74V.36h.63V2.74Z" />
                            <path
                                d="M95.54,2.74V.36h.7a1.87,1.87,0,0,1,.49.07.92.92,0,0,1,.39.21.86.86,0,0,1,.25.36,1.45,1.45,0,0,1,.09.54,1.45,1.45,0,0,1-.09.54,1.08,1.08,0,0,1-.24.37,1.11,1.11,0,0,1-.38.22,1.78,1.78,0,0,1-.47.07Zm.63-.51h0a.88.88,0,0,0,.24,0,.49.49,0,0,0,.2-.11.54.54,0,0,0,.13-.21,1.06,1.06,0,0,0,0-.34,1.06,1.06,0,0,0,0-.34.44.44,0,0,0-.13-.2.38.38,0,0,0-.2-.1.88.88,0,0,0-.24,0h0Z" />
                            <path
                                d="M98.64,2.74,99.36.36h.76l.72,2.38h-.66l-.12-.51H99.4l-.12.51Zm.91-1.16,0,.17H100l0-.17c0-.11-.06-.24-.09-.37L99.73.83h0c0,.12,0,.25-.08.38S99.58,1.47,99.55,1.58Z" />
                            <path d="M102.32,2.74V.89h-.62V.36h1.88V.89H103V2.74Z" />
                            <path
                                d="M105.91,2.78a1.33,1.33,0,0,1-.45-.08.94.94,0,0,1-.34-.25,1.06,1.06,0,0,1-.23-.39,1.67,1.67,0,0,1-.08-.52,1.62,1.62,0,0,1,.08-.52,1.1,1.1,0,0,1,.23-.38.81.81,0,0,1,.34-.24,1.33,1.33,0,0,1,.45-.08,1.25,1.25,0,0,1,.45.08.85.85,0,0,1,.35.24,1,1,0,0,1,.22.38,1.39,1.39,0,0,1,.08.52,1.42,1.42,0,0,1-.08.52.93.93,0,0,1-.22.39,1,1,0,0,1-.35.25A1.25,1.25,0,0,1,105.91,2.78Zm0-.54a.37.37,0,0,0,.34-.19.92.92,0,0,0,.12-.51.88.88,0,0,0-.12-.5.38.38,0,0,0-.34-.18.38.38,0,0,0-.33.18.8.8,0,0,0-.13.5.84.84,0,0,0,.13.51A.37.37,0,0,0,105.91,2.24Z" />
                            <path
                                d="M108.53,2.74V.36h.9a2,2,0,0,1,.36,0,1,1,0,0,1,.31.12.68.68,0,0,1,.2.24.81.81,0,0,1,.08.37.87.87,0,0,1-.1.42.8.8,0,0,1-.28.27l.51.92h-.7l-.41-.8h-.24v.8Zm.63-1.3h.23c.25,0,.38-.1.38-.31a.24.24,0,0,0-.1-.21.55.55,0,0,0-.28-.06h-.23Z" />
                            <path
                                d="M112.63,2.78a1.55,1.55,0,0,1-.47-.08,1.27,1.27,0,0,1-.43-.26l.36-.43a1.24,1.24,0,0,0,.27.17.74.74,0,0,0,.28.06.56.56,0,0,0,.21,0,.15.15,0,0,0,.06-.13.14.14,0,0,0,0-.07l-.07-.06-.1-.05-.13,0-.3-.12-.18-.1a.67.67,0,0,1-.15-.14.72.72,0,0,1-.11-.19.85.85,0,0,1,0-.23.72.72,0,0,1,.06-.29.68.68,0,0,1,.18-.23.85.85,0,0,1,.28-.16,1,1,0,0,1,.36-.06,1.24,1.24,0,0,1,.41.08,1,1,0,0,1,.38.24l-.32.39L112.94.9a.86.86,0,0,0-.24,0,.3.3,0,0,0-.18,0,.13.13,0,0,0-.07.12.14.14,0,0,0,.09.13l.26.11.29.11a.74.74,0,0,1,.34.25.63.63,0,0,1,.12.4.72.72,0,0,1-.06.29.69.69,0,0,1-.18.24.92.92,0,0,1-.29.17A1.18,1.18,0,0,1,112.63,2.78Z" />
                            <path
                                d="M116,2.78a1.33,1.33,0,0,1-.45-.08.94.94,0,0,1-.34-.25,1.06,1.06,0,0,1-.23-.39,1.67,1.67,0,0,1-.08-.52A1.62,1.62,0,0,1,115,1a1.1,1.1,0,0,1,.23-.38.81.81,0,0,1,.34-.24A1.33,1.33,0,0,1,116,.32a1.25,1.25,0,0,1,.45.08.79.79,0,0,1,.35.24,1.1,1.1,0,0,1,.23.38,1.62,1.62,0,0,1,.08.52,1.67,1.67,0,0,1-.08.52,1.06,1.06,0,0,1-.23.39.9.9,0,0,1-.35.25A1.25,1.25,0,0,1,116,2.78Zm0-.54a.37.37,0,0,0,.34-.19.92.92,0,0,0,.12-.51.88.88,0,0,0-.12-.5A.38.38,0,0,0,116,.86a.38.38,0,0,0-.33.18.88.88,0,0,0-.12.5.92.92,0,0,0,.12.51A.37.37,0,0,0,116,2.24Z" />
                            <path d="M118.64,2.74V.36h1.55V.89h-.92v.45h.79v.53h-.79v.87Z" />
                            <path
                                d="M121.69,2.74V.36h.64l.53,1.06.23.54h0c0-.07,0-.14,0-.21l0-.23c0-.08,0-.16,0-.24a1.85,1.85,0,0,1,0-.23V.36h.6V2.74H123l-.53-1.07-.22-.53h0c0,.14,0,.29.05.45a3.67,3.67,0,0,1,0,.46v.69Z" />
                            <path
                                d="M126.27,2.78a1.22,1.22,0,0,1-.43-.08,1.07,1.07,0,0,1-.37-.22,1.12,1.12,0,0,1-.24-.38,1.44,1.44,0,0,1-.09-.53,1.44,1.44,0,0,1,.09-.53,1,1,0,0,1,.26-.39,1,1,0,0,1,.36-.25,1.26,1.26,0,0,1,.43-.08,1,1,0,0,1,.43.09,1.89,1.89,0,0,1,.31.22l-.33.41a.68.68,0,0,0-.18-.13.46.46,0,0,0-.21-.05.46.46,0,0,0-.2.05.52.52,0,0,0-.17.13.9.9,0,0,0-.11.22.85.85,0,0,0,0,.29.84.84,0,0,0,.14.51.45.45,0,0,0,.37.18.54.54,0,0,0,.25-.06.86.86,0,0,0,.18-.14l.33.39a1,1,0,0,1-.35.26A1.07,1.07,0,0,1,126.27,2.78Z" />
                            <path
                                d="M128.79,2.78a.35.35,0,0,1-.26-.11.36.36,0,0,1-.1-.27.36.36,0,0,1,.1-.27.35.35,0,0,1,.26-.11.33.33,0,0,1,.26.11.39.39,0,0,1,0,.54A.33.33,0,0,1,128.79,2.78Z" />
                            <path
                                d="M131.76,2.78a1.26,1.26,0,0,1-.43-.08,1,1,0,0,1-.36-.22,1,1,0,0,1-.25-.38,1.44,1.44,0,0,1-.09-.53,1.44,1.44,0,0,1,.09-.53A1.11,1.11,0,0,1,131,.65a1.11,1.11,0,0,1,.36-.25,1.32,1.32,0,0,1,.44-.08,1,1,0,0,1,.42.09,1.54,1.54,0,0,1,.31.22l-.33.41A.46.46,0,0,0,132,.91a.46.46,0,0,0-.21-.05.46.46,0,0,0-.2.05.4.4,0,0,0-.16.13.66.66,0,0,0-.12.22,1.19,1.19,0,0,0,0,.29.84.84,0,0,0,.14.51.46.46,0,0,0,.37.18.49.49,0,0,0,.25-.06.86.86,0,0,0,.18-.14l.33.39a1,1,0,0,1-.35.26A1,1,0,0,1,131.76,2.78Z" />
                            <path
                                d="M134.82,2.78a1.25,1.25,0,0,1-.45-.08,1,1,0,0,1-.35-.25.93.93,0,0,1-.22-.39,1.42,1.42,0,0,1-.08-.52A1.39,1.39,0,0,1,133.8,1,1,1,0,0,1,134,.64a.85.85,0,0,1,.35-.24,1.25,1.25,0,0,1,.45-.08,1.33,1.33,0,0,1,.45.08.92.92,0,0,1,.35.24,1.09,1.09,0,0,1,.22.38,1.62,1.62,0,0,1,.08.52,1.67,1.67,0,0,1-.08.52,1,1,0,0,1-.22.39,1.07,1.07,0,0,1-.35.25A1.33,1.33,0,0,1,134.82,2.78Zm0-.54a.39.39,0,0,0,.34-.19.92.92,0,0,0,.12-.51.88.88,0,0,0-.12-.5.41.41,0,0,0-.34-.18.38.38,0,0,0-.34.18.88.88,0,0,0-.12.5.92.92,0,0,0,.12.51A.37.37,0,0,0,134.82,2.24Z" />
                            <path
                                d="M137.44,2.74V.36h.67l.35,1a1.72,1.72,0,0,1,.07.21l.06.21h0a1.72,1.72,0,0,0,.07-.21l.06-.21.34-1h.67V2.74h-.57V2c0-.07,0-.13,0-.21s0-.14,0-.22l0-.22a1.68,1.68,0,0,0,0-.2h0l-.2.57-.29.78h-.34l-.29-.78-.19-.57h0a1.68,1.68,0,0,0,0,.2l0,.22c0,.08,0,.15,0,.22A1.55,1.55,0,0,1,138,2v.7Z" />
                            <path d="M143.23,3.65V0h.4V3.65Z" />
                            <path
                                d="M147.31,2.74,146.89.36h.64l.14,1c0,.12,0,.25,0,.37s0,.25,0,.37h0c0-.12,0-.24.07-.37l.06-.37.23-1h.52l.23,1,.06.37c0,.12,0,.25.07.37h0c0-.12,0-.25,0-.37s0-.25,0-.37l.14-1h.59l-.39,2.38h-.79l-.19-1c0-.09,0-.18,0-.28l0-.27h0a2.51,2.51,0,0,1,0,.27,2.33,2.33,0,0,1-.05.28l-.17,1Z" />
                            <path
                                d="M151.41,2.74,151,.36h.64l.13,1c0,.12,0,.25,0,.37s0,.25,0,.37h0c0-.12,0-.24.07-.37L152,1.4l.23-1h.52l.23,1,.06.37c0,.12.05.25.07.37h0c0-.12,0-.25,0-.37s0-.25,0-.37l.14-1h.59l-.39,2.38h-.79l-.19-1c0-.09,0-.18-.05-.28a2.51,2.51,0,0,0,0-.27h0a2.51,2.51,0,0,1,0,.27,2.33,2.33,0,0,1,0,.28l-.17,1Z" />
                            <path
                                d="M155.51,2.74,155.09.36h.64l.13,1c0,.12,0,.25,0,.37s0,.25,0,.37h0c0-.12,0-.24.07-.37l.06-.37.23-1h.52l.23,1,.06.37c0,.12.05.25.07.37h0c0-.12,0-.25,0-.37s0-.25,0-.37l.14-1H158l-.39,2.38h-.8l-.18-1c0-.09,0-.18-.05-.28a2.51,2.51,0,0,0,0-.27h0a2.51,2.51,0,0,1,0,.27,2.33,2.33,0,0,1,0,.28l-.17,1Z" />
                            <path
                                d="M159.59,2.78a.36.36,0,0,1-.36-.38.36.36,0,0,1,.36-.38.37.37,0,0,1,.27.11.41.41,0,0,1,0,.54A.37.37,0,0,1,159.59,2.78Z" />
                            <path
                                d="M161.53,2.74V.36h.9a2,2,0,0,1,.36,0,1,1,0,0,1,.31.12.68.68,0,0,1,.2.24.81.81,0,0,1,.08.37.87.87,0,0,1-.1.42.8.8,0,0,1-.28.27l.51.92h-.7l-.41-.8h-.24v.8Zm.63-1.3h.23c.25,0,.38-.1.38-.31a.24.24,0,0,0-.1-.21.55.55,0,0,0-.28-.06h-.23Z" />
                            <path d="M164.93,2.74V.36h1.53V.89h-.91v.37h.78v.53h-.78v.42h.94v.53Z" />
                            <path
                                d="M169.14,2.78a1.5,1.5,0,0,1-.47-.08,1.11,1.11,0,0,1-.38-.22A1.14,1.14,0,0,1,168,2.1a1.44,1.44,0,0,1-.09-.53A1.44,1.44,0,0,1,168,1a1,1,0,0,1,.26-.39,1.15,1.15,0,0,1,.37-.25,1.44,1.44,0,0,1,.46-.08,1.06,1.06,0,0,1,.45.09,1.38,1.38,0,0,1,.32.22l-.33.41a.68.68,0,0,0-.18-.13.6.6,0,0,0-.24-.05.54.54,0,0,0-.22.05.46.46,0,0,0-.18.13.66.66,0,0,0-.12.22.85.85,0,0,0,0,.29.78.78,0,0,0,.15.51.57.57,0,0,0,.47.18h.1l.08,0V1.87H169V1.36h.9V2.49a.88.88,0,0,1-.33.2A1.23,1.23,0,0,1,169.14,2.78Z" />
                            <path d="M171.5,2.74V.36h.63V2.74Z" />
                            <path
                                d="M174.5,2.78A1.6,1.6,0,0,1,174,2.7a1.27,1.27,0,0,1-.43-.26L174,2a1.24,1.24,0,0,0,.27.17.74.74,0,0,0,.28.06.48.48,0,0,0,.21,0,.15.15,0,0,0,.06-.13.14.14,0,0,0,0-.07s0,0-.06-.06l-.1-.05-.14,0-.29-.12-.19-.1a.67.67,0,0,1-.15-.14.69.69,0,0,1-.1-.19.59.59,0,0,1,0-.23.72.72,0,0,1,.06-.29.71.71,0,0,1,.19-.23.81.81,0,0,1,.27-.16,1,1,0,0,1,.36-.06A1.19,1.19,0,0,1,175,.4a1,1,0,0,1,.38.24L175,1a1.34,1.34,0,0,0-.23-.13.86.86,0,0,0-.24,0,.3.3,0,0,0-.18,0,.13.13,0,0,0-.07.12.13.13,0,0,0,.1.13l.25.11.29.11a.74.74,0,0,1,.34.25.63.63,0,0,1,.12.4.72.72,0,0,1-.06.29.69.69,0,0,1-.18.24.82.82,0,0,1-.29.17A1.14,1.14,0,0,1,174.5,2.78Z" />
                            <path d="M177.28,2.74V.89h-.63V.36h1.88V.89h-.63V2.74Z" />
                            <path d="M180,2.74V.36h.62V2.74Z" />
                            <path
                                d="M182,2.74l.64-1.22L182,.36h.7l.16.39a1.42,1.42,0,0,1,.08.18l.09.21h0c0-.07,0-.14.07-.21a1.34,1.34,0,0,0,.07-.18l.14-.39H184l-.6,1.19.64,1.19h-.7l-.19-.43-.09-.19-.08-.2h0l-.08.2c0,.07,0,.13-.08.19l-.17.43Z" />
                            <path d="M185.46,2.74V.36H187V.89h-.92v.45h.79v.53h-.79v.87Z" />
                            <path
                                d="M188.51,2.74V.36h.9a2,2,0,0,1,.36,0,.82.82,0,0,1,.3.12.61.61,0,0,1,.21.24.81.81,0,0,1,.08.37.77.77,0,0,1-.11.42.73.73,0,0,1-.28.27l.52.92h-.7l-.41-.8h-.24v.8Zm.63-1.3h.23c.25,0,.37-.1.37-.31a.23.23,0,0,0-.09-.21.55.55,0,0,0-.28-.06h-.23Z" />
                            <path d="M191.9,2.74V.36h1.54V.89h-.91v.37h.77v.53h-.77v.42h.94v.53Z" />
                            <path d="M195,2.74V.36h.62V2.74Z" />
                            <path
                                d="M198.37,2.78a1.45,1.45,0,0,1-.47-.08,1,1,0,0,1-.38-.22,1.16,1.16,0,0,1-.26-.38,1.44,1.44,0,0,1-.09-.53,1.25,1.25,0,0,1,.1-.53,1.09,1.09,0,0,1,.25-.39A1.19,1.19,0,0,1,197.9.4a1.38,1.38,0,0,1,.45-.08,1.08,1.08,0,0,1,.46.09,2,2,0,0,1,.32.22L198.8,1a.59.59,0,0,0-.19-.13.52.52,0,0,0-.23-.05.56.56,0,0,0-.23.05A.46.46,0,0,0,198,1a.51.51,0,0,0-.11.22.84.84,0,0,0-.05.29.78.78,0,0,0,.15.51.58.58,0,0,0,.47.18h.1l.09,0V1.87h-.35V1.36h.9V2.49a1,1,0,0,1-.34.2A1.14,1.14,0,0,1,198.37,2.78Z" />
                            <path d="M200.72,2.74V.36h.63v.89h.71V.36h.63V2.74h-.63v-1h-.71v1Z" />
                            <path d="M204.76,2.74V.89h-.63V.36H206V.89h-.62V2.74Z" />
                            <path
                                d="M207.34,2.78a.35.35,0,0,1-.26-.11.36.36,0,0,1-.1-.27.36.36,0,0,1,.1-.27.35.35,0,0,1,.26-.11.33.33,0,0,1,.26.11.39.39,0,0,1,0,.54A.33.33,0,0,1,207.34,2.78Z" />
                            <path
                                d="M210.31,2.78a1.22,1.22,0,0,1-.43-.08,1,1,0,0,1-.36-.22,1,1,0,0,1-.25-.38,1.44,1.44,0,0,1-.09-.53,1.44,1.44,0,0,1,.09-.53,1.11,1.11,0,0,1,.26-.39,1,1,0,0,1,.36-.25,1.26,1.26,0,0,1,.43-.08,1,1,0,0,1,.43.09,1.54,1.54,0,0,1,.31.22l-.33.41a.68.68,0,0,0-.18-.13.46.46,0,0,0-.21-.05.46.46,0,0,0-.2.05A.4.4,0,0,0,210,1a.66.66,0,0,0-.12.22.85.85,0,0,0,0,.29.84.84,0,0,0,.14.51.45.45,0,0,0,.37.18.51.51,0,0,0,.25-.06.86.86,0,0,0,.18-.14l.33.39a1,1,0,0,1-.35.26A1,1,0,0,1,210.31,2.78Z" />
                            <path
                                d="M213.37,2.78a1.25,1.25,0,0,1-.45-.08,1,1,0,0,1-.35-.25.93.93,0,0,1-.22-.39,1.42,1.42,0,0,1-.09-.52,1.38,1.38,0,0,1,.09-.52,1,1,0,0,1,.22-.38.85.85,0,0,1,.35-.24,1.25,1.25,0,0,1,.45-.08,1.33,1.33,0,0,1,.45.08.81.81,0,0,1,.34.24,1.1,1.1,0,0,1,.23.38,1.62,1.62,0,0,1,.08.52,1.67,1.67,0,0,1-.08.52,1.06,1.06,0,0,1-.23.39.94.94,0,0,1-.34.25A1.33,1.33,0,0,1,213.37,2.78Zm0-.54a.37.37,0,0,0,.33-.19.84.84,0,0,0,.13-.51.8.8,0,0,0-.13-.5.38.38,0,0,0-.33-.18A.38.38,0,0,0,213,1a.88.88,0,0,0-.12.5.92.92,0,0,0,.12.51A.37.37,0,0,0,213.37,2.24Z" />
                            <path
                                d="M216,2.74V.36h.67l.35,1a1.72,1.72,0,0,1,.07.21l.06.21h0a1.66,1.66,0,0,0,.06-.21,1.72,1.72,0,0,1,.07-.21l.34-1h.67V2.74h-.57V2a1.55,1.55,0,0,1,0-.21c0-.07,0-.14,0-.22l0-.22c0-.08,0-.14,0-.2h0l-.2.57-.29.78H217l-.29-.78-.19-.57h0a1.68,1.68,0,0,0,0,.2l0,.22c0,.08,0,.15,0,.22s0,.14,0,.21v.7Z" />
                        </g>
                    </g>
                </svg>