<svg xmlns="http://www.w3.org/2000/svg" style="width: 100%; max-height: 90px" viewBox="0 0 198.66 17">
                    <defs>
                    </defs>
                    <g id="Layer_2" data-name="Layer 2">
                        <g id="Layer_1-2" data-name="Layer 1">
                            <path d="M4.7,5.35H2.87v2H1.71v-5H5.05v.89H2.87v1.2H4.7Z" />
                            <path d="M9,7.36H7.81v-5H9Z" />
                            <path d="M13.1,6.46h2.14v.9h-3.3v-5H13.1Z" />
                            <path d="M19.2,7.36H18v-5H19.2Z" />
                            <path
                                d="M23.34,5.64V7.36H22.18v-5h1.9a2.06,2.06,0,0,1,1.41.45A1.5,1.5,0,0,1,26,4a1.48,1.48,0,0,1-.52,1.19,2.06,2.06,0,0,1-1.41.45Zm0-.89h.74a.76.76,0,0,0,.58-.21.72.72,0,0,0,.2-.53.77.77,0,0,0-.2-.54.72.72,0,0,0-.58-.22h-.74Z" />
                            <path
                                d="M35.26,5.86h0l1.13-3.5h1.53v5H36.78V4.14h0l-1.1,3.23h-.78L33.8,4.18h0V7.36H32.62v-5h1.52Z" />
                            <path d="M43.52,6.38H42l-.29,1H40.53l1.63-5H43.4l1.63,5H43.81ZM42.3,5.49h1l-.46-1.55h0Z" />
                            <path
                                d="M51.3,5.67v0A1.62,1.62,0,0,1,50.82,7a2.06,2.06,0,0,1-1.4.44,1.94,1.94,0,0,1-2.05-2v-1a2,2,0,0,1,.54-1.48,1.87,1.87,0,0,1,1.43-.57,2.24,2.24,0,0,1,1.47.44A1.59,1.59,0,0,1,51.31,4V4H50.17A.91.91,0,0,0,50,3.38a.89.89,0,0,0-.64-.2.7.7,0,0,0-.6.31,1.49,1.49,0,0,0-.21.84v1a1.35,1.35,0,0,0,.23.84.76.76,0,0,0,.66.32.74.74,0,0,0,.57-.2,1,1,0,0,0,.18-.67Z" />
                            <path d="M55.28,7.36H54.12v-5h1.16Z" />
                            <path
                                d="M62.41,5.31a2.1,2.1,0,0,1-.59,1.52,2,2,0,0,1-1.53.6,2,2,0,0,1-2.13-2.12v-.9a2.1,2.1,0,0,1,.59-1.52,2.26,2.26,0,0,1,3.07,0,2.1,2.1,0,0,1,.59,1.52ZM61.25,4.4A1.43,1.43,0,0,0,61,3.52a.83.83,0,0,0-.71-.34.82.82,0,0,0-.72.34,1.43,1.43,0,0,0-.25.88v.91a1.43,1.43,0,0,0,.25.88.85.85,0,0,0,.72.35A.83.83,0,0,0,61,6.19a1.43,1.43,0,0,0,.25-.88Z" />
                            <path d="M66.38,6.46h2.14v.9h-3.3v-5h1.16Z" />
                            <path
                                d="M75.32,5.31a2.1,2.1,0,0,1-.59,1.52,2.25,2.25,0,0,1-3.06,0,2.06,2.06,0,0,1-.59-1.52v-.9A2,2,0,0,1,73.2,2.29a2.06,2.06,0,0,1,1.53.6,2.1,2.1,0,0,1,.59,1.52ZM74.16,4.4a1.43,1.43,0,0,0-.25-.88.92.92,0,0,0-1.43,0,1.43,1.43,0,0,0-.25.88v.91a1.5,1.5,0,0,0,.25.88.85.85,0,0,0,.73.35.81.81,0,0,0,.7-.35,1.43,1.43,0,0,0,.25-.88Z" />
                            <path
                                d="M82.15,5.6h0l.6-3.24H84l-1.15,5H81.71l-.84-3.09h0L80,7.36h-1.1l-1.14-5H79l.61,3.24h0l.84-3.25h.88Z" />
                            <path
                                d="M89.08,6a.5.5,0,0,0-.18-.41,2.47,2.47,0,0,0-.63-.3,4.69,4.69,0,0,1-1.38-.65,1.14,1.14,0,0,1-.45-1,1.19,1.19,0,0,1,.52-1,2.16,2.16,0,0,1,1.33-.39,2.2,2.2,0,0,1,1.38.4,1.26,1.26,0,0,1,.5,1.13v0H89a.64.64,0,0,0-.19-.52.93.93,0,0,0-.58-.16.72.72,0,0,0-.5.16.48.48,0,0,0-.18.38.4.4,0,0,0,.19.35,3.32,3.32,0,0,0,.7.33A3.72,3.72,0,0,1,89.79,5a1.24,1.24,0,0,1,.45,1,1.23,1.23,0,0,1-.52,1,2.33,2.33,0,0,1-1.36.37A2.54,2.54,0,0,1,86.92,7a1.39,1.39,0,0,1-.57-1.26v0h1.13a.79.79,0,0,0,.21.62,1,1,0,0,0,.66.18.89.89,0,0,0,.54-.14A.46.46,0,0,0,89.08,6Z" />
                            <path d="M94.46,5.35h-.33v2H93v-5h1.16v2h.25l1.12-2H97L95.39,4.63l1.7,2.73H95.61Z" />
                            <path d="M100.79,7.36H99.63v-5h1.16Z" />
                            <path style="fill: #4693d3;"
                                d="M1.54,13.56A1.71,1.71,0,0,1,1,13.45a1.38,1.38,0,0,1-.49-.3,1.54,1.54,0,0,1-.33-.52,2.09,2.09,0,0,1,0-1.45,1.53,1.53,0,0,1,.35-.53A1.49,1.49,0,0,1,1,10.31a1.71,1.71,0,0,1,.59-.11,1.21,1.21,0,0,1,.58.13,1.5,1.5,0,0,1,.43.3l-.45.55L1.88,11a.73.73,0,0,0-.3-.06.66.66,0,0,0-.27.06.66.66,0,0,0-.22.19.81.81,0,0,0-.16.29,1.6,1.6,0,0,0-.05.39,1.08,1.08,0,0,0,.19.7.6.6,0,0,0,.5.25.74.74,0,0,0,.34-.08,1,1,0,0,0,.25-.2l.45.54a1.38,1.38,0,0,1-.48.36A1.45,1.45,0,0,1,1.54,13.56Z" />
                            <path style="fill: #4693d3;"
                                d="M4.55,13.5V10.26h.86v1.2h1v-1.2h.86V13.5H6.37V12.21h-1V13.5Z" />
                            <path style="fill: #4693d3;" d="M9.44,13.5V10.26h.86V13.5Z" />
                            <path style="fill: #4693d3;"
                                d="M12.51,13.5V10.26H14.6V11H13.37v.5h1.05v.72H13.37v.58h1.28v.72Z" />
                            <path style="fill: #4693d3;" d="M16.77,13.5V10.26h2.11V11H17.63v.61H18.7v.72H17.63V13.5Z" />
                            <path style="fill: #4693d3;"
                                d="M24.45,13.56a1.8,1.8,0,0,1-.63-.12,1.54,1.54,0,0,1-.59-.35l.48-.58a2.08,2.08,0,0,0,.38.22.92.92,0,0,0,.38.09.51.51,0,0,0,.28-.06.2.2,0,0,0,.09-.17.17.17,0,0,0,0-.1.22.22,0,0,0-.09-.07.46.46,0,0,0-.14-.07l-.18-.07-.4-.17a1.23,1.23,0,0,1-.25-.14.76.76,0,0,1-.21-.19.72.72,0,0,1-.14-.26.78.78,0,0,1,0-.31,1.1,1.1,0,0,1,.08-.4,1.26,1.26,0,0,1,.25-.31,1.11,1.11,0,0,1,.38-.22,1.53,1.53,0,0,1,.49-.08,1.67,1.67,0,0,1,.57.1,1.4,1.4,0,0,1,.51.33l-.43.54a1.43,1.43,0,0,0-.32-.17.88.88,0,0,0-.33-.06.55.55,0,0,0-.25.05.19.19,0,0,0,0,.34l.35.15.39.15a1,1,0,0,1,.47.34.94.94,0,0,1,.08.94.9.9,0,0,1-.25.33,1.15,1.15,0,0,1-.39.23A1.53,1.53,0,0,1,24.45,13.56Z" />
                            <path style="fill: #4693d3;"
                                d="M29.05,13.56a1.26,1.26,0,0,1-1-.4,1.88,1.88,0,0,1-.33-1.23V10.26h.85V12a1.14,1.14,0,0,0,.12.61.41.41,0,0,0,.37.18.43.43,0,0,0,.38-.18,1.14,1.14,0,0,0,.12-.61V10.26h.83v1.67a1.88,1.88,0,0,1-.33,1.23A1.22,1.22,0,0,1,29.05,13.56Z" />
                            <path style="fill: #4693d3;"
                                d="M32.57,13.5V10.26h1.18a2.76,2.76,0,0,1,.51.05,1.28,1.28,0,0,1,.41.18,1,1,0,0,1,.29.33,1.13,1.13,0,0,1,.11.51,1.17,1.17,0,0,1-.11.52,1,1,0,0,1-.29.35,1.12,1.12,0,0,1-.41.2,1.61,1.61,0,0,1-.49.07h-.35v1Zm.85-1.71h.31a.52.52,0,0,0,.38-.12.45.45,0,0,0,.12-.34.33.33,0,0,0-.13-.3.7.7,0,0,0-.39-.09h-.29Z" />
                            <path style="fill: #4693d3;"
                                d="M37.09,13.5V10.26h1.18a2.76,2.76,0,0,1,.51.05,1.19,1.19,0,0,1,.41.18,1,1,0,0,1,.29.33,1.13,1.13,0,0,1,.11.51,1.17,1.17,0,0,1-.11.52,1,1,0,0,1-.29.35,1,1,0,0,1-.41.2,1.57,1.57,0,0,1-.49.07h-.35v1Zm.85-1.71h.31a.52.52,0,0,0,.38-.12.45.45,0,0,0,.12-.34.33.33,0,0,0-.13-.3.7.7,0,0,0-.39-.09h-.29Z" />
                            <path style="fill: #4693d3;" d="M41.61,13.5V10.26h.86v2.52h1.22v.72Z" />
                            <path style="fill: #4693d3;"
                                d="M45.86,13.5V12.38l-1-2.12h.91l.24.68.12.35c0,.12.08.24.13.37h0l.12-.37c0-.11.09-.23.13-.35l.24-.68h.9l-1,2.12V13.5Z" />
                            <path style="fill: #4693d3;"
                                d="M53.39,13.56a1.71,1.71,0,0,1-.59-.11,1.3,1.3,0,0,1-.49-.3,1.74,1.74,0,0,1-.34-.52,2,2,0,0,1-.12-.73,1.81,1.81,0,0,1,.13-.72,1.51,1.51,0,0,1,.34-.53,1.53,1.53,0,0,1,.5-.34,1.71,1.71,0,0,1,.59-.11,1.21,1.21,0,0,1,.58.13,1.5,1.5,0,0,1,.43.3l-.45.55a1.44,1.44,0,0,0-.25-.18.65.65,0,0,0-.29-.06.63.63,0,0,0-.27.06.66.66,0,0,0-.22.19.81.81,0,0,0-.16.29,1.23,1.23,0,0,0-.06.39,1.08,1.08,0,0,0,.2.7.58.58,0,0,0,.5.25.74.74,0,0,0,.34-.08,1,1,0,0,0,.25-.2l.45.54a1.38,1.38,0,0,1-.48.36A1.45,1.45,0,0,1,53.39,13.56Z" />
                            <path style="fill: #4693d3;"
                                d="M56.4,13.5V10.26h.86v1.2h1v-1.2h.86V13.5h-.86V12.21h-1V13.5Z" />
                            <path style="fill: #4693d3;"
                                d="M60.88,13.5l1-3.24h1l1,3.24H63l-.16-.69h-.9l-.16.69Zm1.25-1.58-.06.23h.6l-.06-.23q-.06-.22-.12-.51c0-.18-.07-.35-.11-.51h0c0,.16-.07.34-.11.52S62.17,11.77,62.13,11.92Z" />
                            <path style="fill: #4693d3;" d="M65.69,13.5V10.26h.86V13.5Z" />
                            <path style="fill: #4693d3;"
                                d="M68.76,13.5V10.26h.88l.71,1.44.31.73h0l0-.28c0-.11,0-.21,0-.32l0-.32c0-.11,0-.22,0-.31v-.94h.82V13.5h-.88l-.72-1.45-.3-.72h0c0,.18,0,.38.07.6s0,.43,0,.63v.94Z" />
                            <path style="fill: #4693d3;"
                                d="M77.45,13.56a1.51,1.51,0,0,1-.61-.12,1.39,1.39,0,0,1-.78-.86,2.38,2.38,0,0,1,0-1.43,1.36,1.36,0,0,1,.31-.52,1.19,1.19,0,0,1,.47-.32,1.7,1.7,0,0,1,.61-.11,1.75,1.75,0,0,1,.62.11,1.27,1.27,0,0,1,.47.32,1.72,1.72,0,0,1,.31.53,2.14,2.14,0,0,1,.11.7,2.27,2.27,0,0,1-.11.72,1.61,1.61,0,0,1-.31.53,1.43,1.43,0,0,1-.47.33A1.56,1.56,0,0,1,77.45,13.56Zm0-.74a.52.52,0,0,0,.46-.26,1.19,1.19,0,0,0,.17-.7,1.12,1.12,0,0,0-.17-.68.52.52,0,0,0-.46-.24.54.54,0,0,0-.46.24,1.2,1.2,0,0,0-.16.68,1.27,1.27,0,0,0,.16.7A.53.53,0,0,0,77.45,12.82Z" />
                            <path style="fill: #4693d3;" d="M81,13.5V10.26h2.11V11H81.88v.61H83v.72H81.88V13.5Z" />
                            <path style="fill: #4693d3;" d="M85.19,13.5V10.26H87.3V11H86.05v.61h1.07v.72H86.05V13.5Z" />
                            <path style="fill: #4693d3;" d="M89.35,13.5V10.26h.86V13.5Z" />
                            <path style="fill: #4693d3;"
                                d="M93.83,13.56a1.63,1.63,0,0,1-.59-.11,1.34,1.34,0,0,1-.5-.3,1.54,1.54,0,0,1-.33-.52,1.83,1.83,0,0,1-.13-.73,2,2,0,0,1,.13-.72,1.53,1.53,0,0,1,.35-.53,1.43,1.43,0,0,1,.5-.34,1.63,1.63,0,0,1,.59-.11,1.2,1.2,0,0,1,.57.13,1.38,1.38,0,0,1,.43.3l-.45.55L94.16,11a.68.68,0,0,0-.29-.06.67.67,0,0,0-.28.06.77.77,0,0,0-.22.19.8.8,0,0,0-.15.29,1.23,1.23,0,0,0-.06.39,1.08,1.08,0,0,0,.19.7.61.61,0,0,0,.51.25.73.73,0,0,0,.33-.08,1,1,0,0,0,.25-.2l.45.54a1.38,1.38,0,0,1-.48.36A1.4,1.4,0,0,1,93.83,13.56Z" />
                            <path style="fill: #4693d3;"
                                d="M96.83,13.5V10.26h2.1V11H97.69v.5h1.06v.72H97.69v.58H99v.72Z" />
                            <path style="fill: #4693d3;"
                                d="M101.1,13.5V10.26h1.22a2.73,2.73,0,0,1,.5.05,1.15,1.15,0,0,1,.41.17.87.87,0,0,1,.28.32,1.07,1.07,0,0,1,.11.51,1,1,0,0,1-.15.57.94.94,0,0,1-.38.36l.71,1.26h-1l-.56-1.09H102V13.5Zm.85-1.77h.31c.35,0,.52-.14.52-.42a.3.3,0,0,0-.13-.29.71.71,0,0,0-.39-.08H102Z" />
                            <path style="fill: #B7B7B7;"
                                d="M143.76,1.42h5.59L149,3.31h-3.36l-.31,1.61h2.85l-.37,1.89H145l-.4,1.89H148l-.37,1.89h-5.72Z" />
                            <path style="fill: #B7B7B7;"
                                d="M151.32,6.87c0-3.28,2.23-5.62,5.07-5.62A2.85,2.85,0,0,1,159,2.75l-1.52,1.18a1.38,1.38,0,0,0-1.24-.73c-1.46,0-2.65,1.55-2.65,3.52,0,1.33.51,2.12,1.81,2.12a1.58,1.58,0,0,0,.79-.23l.33-1.52h-1.35l.34-1.83h3.33L158,9.8a5,5,0,0,1-3,1C152.76,10.76,151.32,9.35,151.32,6.87Z" />
                            <path style="fill: #B7B7B7;" d="M162.88,1.42h2.26l-1.84,9.17h-2.25Z" />
                            <path style="fill: #B7B7B7;"
                                d="M166.49,9l1.61-1.26A2.51,2.51,0,0,0,170,8.84c.65,0,1.08-.3,1.08-.8s-.41-.6-1.05-1l-.79-.49a2.56,2.56,0,0,1-1.35-2.35,3.18,3.18,0,0,1,3.37-3,3.78,3.78,0,0,1,2.85,1.43L172.71,4a2.21,2.21,0,0,0-1.52-.8c-.65,0-1,.35-1,.79s.4.55,1.13,1l.85.53a2.23,2.23,0,0,1,1.24,2.18c0,1.68-1.39,3.05-3.58,3.05A4.09,4.09,0,0,1,166.49,9Z" />
                            <path style="fill: #B7B7B7;"
                                d="M178.47,3.31h-2.31l.37-1.89h6.88L183,3.31h-2.31l-1.44,7.28H177Z" />
                            <path style="fill: #B7B7B7;" d="M186.26,1.42h2.25l-1.83,9.17h-2.26Z" />
                            <path style="fill: #B7B7B7;"
                                d="M192.69,5.88,191.3,1.42h2.51L194.15,3c.09.42.19.92.31,1.49h.06c.31-.57.61-1.07.85-1.49l.9-1.61h2.39L195.48,6,197,10.59h-2.51l-.39-1.78c-.11-.48-.23-.94-.34-1.49h-.06c-.31.55-.59,1-.87,1.49l-1.07,1.78h-2.4Z" />
                            <path style="fill: #f00000;"
                                d="M130.81,3.68l-1.37-2.35h6.05a3.3,3.3,0,0,1,3.24,3.41,1.22,1.22,0,0,1,0,.27,3.31,3.31,0,0,1-2.36,2.86l.64.93,1.3,1.79h-2.82a.94.94,0,0,1-.75-.52L134,8.93l-2-3.28h3.46a1,1,0,0,0,.67-.4,1,1,0,0,0,0-1.08,1.11,1.11,0,0,0-.75-.49C134.4,3.64,130.81,3.68,130.81,3.68Z" />
                            <path
                                d="M129.6,14.87V12.81h.78a1.55,1.55,0,0,1,.31,0A.81.81,0,0,1,131,13a.63.63,0,0,1,.18.21.73.73,0,0,1,.06.32.7.7,0,0,1-.09.37.64.64,0,0,1-.24.22l.45.8h-.61l-.36-.69h-.21v.69Zm.54-1.12h.2q.33,0,.33-.27a.21.21,0,0,0-.09-.19.48.48,0,0,0-.24,0h-.2Z" />
                            <path d="M132.55,14.87V12.81h1.33v.46h-.79v.32h.68v.46h-.68v.37h.82v.45Z" />
                            <path
                                d="M135.61,14.87,135,12.81h.58l.22.9c0,.11,0,.22.07.33s0,.21.08.33h0c0-.12.06-.23.08-.33s.05-.22.07-.33l.21-.9h.56l-.61,2.06Z" />
                            <path d="M138,14.87V12.81h1.33v.46h-.78v.32h.67v.46h-.67v.37h.81v.45Z" />
                            <path
                                d="M140.75,14.87V12.81h.78a1.55,1.55,0,0,1,.31,0,.81.81,0,0,1,.27.11.63.63,0,0,1,.18.21.73.73,0,0,1,.06.32.7.7,0,0,1-.09.37.64.64,0,0,1-.24.22l.45.8h-.61l-.36-.69h-.21v.69Zm.54-1.12h.2q.33,0,.33-.27a.21.21,0,0,0-.09-.19.48.48,0,0,0-.24,0h-.2Z" />
                            <path
                                d="M144.31,14.91a1.18,1.18,0,0,1-.41-.07,1.07,1.07,0,0,1-.37-.22l.31-.38a1,1,0,0,0,.24.15.69.69,0,0,0,.24,0,.3.3,0,0,0,.18,0,.1.1,0,0,0,.05-.1.08.08,0,0,0,0-.07l-.05,0-.09,0-.12,0L144,14a.51.51,0,0,1-.16-.09.37.37,0,0,1-.13-.12.86.86,0,0,1-.1-.16.66.66,0,0,1,0-.21.5.5,0,0,1,.06-.24.65.65,0,0,1,.16-.21.8.8,0,0,1,.24-.14,1,1,0,0,1,.31-.05,1.15,1.15,0,0,1,.36.07.75.75,0,0,1,.32.21l-.27.34a1.36,1.36,0,0,0-.2-.11.65.65,0,0,0-.21,0,.25.25,0,0,0-.16,0,.11.11,0,0,0-.06.1.14.14,0,0,0,.08.12l.23.09.25.1a.68.68,0,0,1,.3.21.56.56,0,0,1,.1.35.7.7,0,0,1-.05.25.65.65,0,0,1-.16.21.87.87,0,0,1-.25.15A1.21,1.21,0,0,1,144.31,14.91Z" />
                            <path d="M146.39,14.87V12.81h1.34v.46h-.79v.32h.67v.46h-.67v.37h.82v.45Z" />
                            <path d="M150.7,14.87V12.81h.54v1.61H152v.45Z" />
                            <path
                                d="M154.07,14.91a1,1,0,0,1-.39-.07.81.81,0,0,1-.3-.21,1.13,1.13,0,0,1-.2-.34,1.64,1.64,0,0,1-.07-.46,1.52,1.52,0,0,1,.07-.45,1.08,1.08,0,0,1,.2-.33.81.81,0,0,1,.3-.21,1.12,1.12,0,0,1,.78,0,1,1,0,0,1,.31.21,1.06,1.06,0,0,1,.19.33,1.25,1.25,0,0,1,.07.45,1.35,1.35,0,0,1-.07.46,1.11,1.11,0,0,1-.19.34,1,1,0,0,1-.31.21A1,1,0,0,1,154.07,14.91Zm0-.47a.34.34,0,0,0,.3-.16.83.83,0,0,0,.1-.45.74.74,0,0,0-.1-.43.34.34,0,0,0-.3-.16.33.33,0,0,0-.29.16.74.74,0,0,0-.11.43.83.83,0,0,0,.11.45A.33.33,0,0,0,154.07,14.44Z" />
                            <path
                                d="M157.3,14.91a1.29,1.29,0,0,1-.4-.06,1.05,1.05,0,0,1-.34-.2,1.12,1.12,0,0,1-.22-.33,1.3,1.3,0,0,1-.08-.46,1.26,1.26,0,0,1,.08-.46.93.93,0,0,1,.23-.34.72.72,0,0,1,.33-.21,1,1,0,0,1,.39-.08.93.93,0,0,1,.39.08,1,1,0,0,1,.28.2l-.28.35a.51.51,0,0,0-.16-.11.46.46,0,0,0-.21,0,.65.65,0,0,0-.2,0,.44.44,0,0,0-.15.12.39.39,0,0,0-.1.19.66.66,0,0,0,0,.25.69.69,0,0,0,.13.45.51.51,0,0,0,.41.15h.09a.11.11,0,0,0,.07,0v-.28h-.31v-.45H158v1a.85.85,0,0,1-.3.18A1,1,0,0,1,157.3,14.91Z" />
                            <path d="M159.35,14.87V12.81h.55v2.06Z" />
                            <path
                                d="M162,14.91a1.22,1.22,0,0,1-.41-.07,1.17,1.17,0,0,1-.37-.22l.31-.38a1,1,0,0,0,.24.15.74.74,0,0,0,.24,0,.3.3,0,0,0,.18,0,.11.11,0,0,0,.06-.1.14.14,0,0,0,0-.07s0,0-.06,0l-.09,0-.11,0-.26-.11a.65.65,0,0,1-.16-.09.49.49,0,0,1-.13-.12.51.51,0,0,1-.09-.16.65.65,0,0,1,0-.21.5.5,0,0,1,.06-.24.65.65,0,0,1,.16-.21,1,1,0,0,1,.24-.14,1.06,1.06,0,0,1,.31-.05,1.15,1.15,0,0,1,.36.07.84.84,0,0,1,.33.21l-.27.34a1.06,1.06,0,0,0-.21-.11.65.65,0,0,0-.21,0,.27.27,0,0,0-.16,0,.12.12,0,0,0-.05.1.12.12,0,0,0,.08.12l.22.09.25.1a.68.68,0,0,1,.3.21.56.56,0,0,1,.1.35.53.53,0,0,1,0,.25.65.65,0,0,1-.16.21.76.76,0,0,1-.25.15A1.16,1.16,0,0,1,162,14.91Z" />
                            <path d="M164.38,14.87v-1.6h-.55v-.46h1.64v.46h-.55v1.6Z" />
                            <path d="M166.73,14.87V12.81h.54v2.06Z" />
                            <path
                                d="M169.57,14.91a1.15,1.15,0,0,1-.37-.06,1,1,0,0,1-.32-.2.93.93,0,0,1-.21-.33,1.3,1.3,0,0,1-.08-.46,1.26,1.26,0,0,1,.08-.46,1.05,1.05,0,0,1,.22-.34.81.81,0,0,1,.32-.21,1,1,0,0,1,.38-.08.91.91,0,0,1,.37.08,1.35,1.35,0,0,1,.27.2l-.29.35a.48.48,0,0,0-.15-.11.41.41,0,0,0-.19,0,.47.47,0,0,0-.17,0,.57.57,0,0,0-.15.12.48.48,0,0,0-.09.19.66.66,0,0,0,0,.25.75.75,0,0,0,.12.45.39.39,0,0,0,.32.15.51.51,0,0,0,.22,0l.16-.13.28.35a1.09,1.09,0,0,1-.3.23A1,1,0,0,1,169.57,14.91Z" />
                            <path
                                d="M172.05,14.91a1.22,1.22,0,0,1-.41-.07,1.17,1.17,0,0,1-.37-.22l.31-.38a1,1,0,0,0,.24.15.74.74,0,0,0,.24,0,.3.3,0,0,0,.18,0,.11.11,0,0,0,.06-.1.14.14,0,0,0,0-.07s0,0-.06,0l-.09,0-.11,0-.26-.11a.65.65,0,0,1-.16-.09.49.49,0,0,1-.13-.12.51.51,0,0,1-.09-.16.65.65,0,0,1,0-.21.5.5,0,0,1,.06-.24.65.65,0,0,1,.16-.21,1,1,0,0,1,.24-.14,1.06,1.06,0,0,1,.31-.05,1.15,1.15,0,0,1,.36.07.84.84,0,0,1,.33.21l-.27.34a1.06,1.06,0,0,0-.21-.11.65.65,0,0,0-.21,0,.25.25,0,0,0-.16,0,.12.12,0,0,0,0,.1.12.12,0,0,0,.08.12l.22.09.25.1a.68.68,0,0,1,.3.21.56.56,0,0,1,.1.35.53.53,0,0,1,0,.25.65.65,0,0,1-.16.21.76.76,0,0,1-.25.15A1.16,1.16,0,0,1,172.05,14.91Z" />
                            <path
                                d="M175.72,14.87V12.81h.76a1.66,1.66,0,0,1,.32,0,.83.83,0,0,1,.27.12.63.63,0,0,1,.18.21.81.81,0,0,1,.07.33.79.79,0,0,1-.07.32.84.84,0,0,1-.18.23,1.13,1.13,0,0,1-.27.13,1.06,1.06,0,0,1-.31,0h-.22v.65Zm.55-1.08h.2a.36.36,0,0,0,.24-.08.28.28,0,0,0,.07-.21.23.23,0,0,0-.08-.2.44.44,0,0,0-.25-.06h-.18Z" />
                            <path
                                d="M178.19,14.87l.62-2.06h.66l.63,2.06h-.58l-.1-.43h-.58l-.1.43Zm.79-1,0,.14h.38l0-.14c0-.1,0-.21-.08-.32s-.05-.23-.07-.33h0c0,.1,0,.21-.07.33S179,13.77,179,13.87Z" />
                            <path
                                d="M181.25,14.87V12.81H182a1.66,1.66,0,0,1,.32,0,.68.68,0,0,1,.26.11.46.46,0,0,1,.18.21.72.72,0,0,1,.07.32.7.7,0,0,1-.09.37.6.6,0,0,1-.25.22l.45.8h-.61l-.35-.69h-.21v.69Zm.55-1.12H182q.33,0,.33-.27a.23.23,0,0,0-.08-.19.55.55,0,0,0-.25,0h-.19Z" />
                            <path d="M184.53,14.87v-1.6H184v-.46h1.63v.46h-.54v1.6Z" />
                            <path
                                d="M186.88,14.87V12.81h.56l.45.92.2.46h0a1.41,1.41,0,0,0,0-.18c0-.06,0-.13,0-.2s0-.14,0-.2,0-.14,0-.2v-.6h.52v2.06H188l-.46-.92-.2-.46h0c0,.12,0,.25,0,.39a2.8,2.8,0,0,1,0,.4v.59Z" />
                            <path d="M190,14.87V12.81h1.34v.46h-.79v.32h.67v.46h-.67v.37h.82v.45Z" />
                            <path
                                d="M192.68,14.87V12.81h.78a1.66,1.66,0,0,1,.32,0A.76.76,0,0,1,194,13a.63.63,0,0,1,.18.21.72.72,0,0,1,.07.32.7.7,0,0,1-.1.37.64.64,0,0,1-.24.22l.45.8h-.61l-.36-.69h-.2v.69Zm.55-1.12h.19q.33,0,.33-.27a.23.23,0,0,0-.08-.19.55.55,0,0,0-.25,0h-.19Z" />
                            <path
                                d="M196.24,14.91a1.22,1.22,0,0,1-.41-.07,1.17,1.17,0,0,1-.37-.22l.31-.38a1,1,0,0,0,.24.15.74.74,0,0,0,.24,0,.3.3,0,0,0,.18,0,.11.11,0,0,0,.06-.1.14.14,0,0,0,0-.07.15.15,0,0,0-.06,0l-.08,0-.12,0L196,14a.65.65,0,0,1-.16-.09.49.49,0,0,1-.13-.12.51.51,0,0,1-.09-.16.66.66,0,0,1,0-.21.49.49,0,0,1,.05-.24.65.65,0,0,1,.16-.21,1,1,0,0,1,.24-.14,1.06,1.06,0,0,1,.31-.05,1.15,1.15,0,0,1,.36.07.84.84,0,0,1,.33.21l-.27.34a1.06,1.06,0,0,0-.21-.11.65.65,0,0,0-.21,0,.27.27,0,0,0-.16,0,.12.12,0,0,0,0,.1.12.12,0,0,0,.08.12l.22.09.25.1a.68.68,0,0,1,.3.21.56.56,0,0,1,.1.35.58.58,0,0,1-.21.46.76.76,0,0,1-.25.15A1.16,1.16,0,0,1,196.24,14.91Z" />
                            <line style="stroke:rgb(0,0,0);stroke-width:1" x1=" 114.37" x2="114.37" y2="100" />
                            <!-- <line x1=" 114.37" x2="114.37" y2="100" style="stroke:rgb(255,0,0);stroke-width:2" /> -->
                        </g>
                    </g>
                </svg>