<svg xmlns="http://www.w3.org/2000/svg" viewBox="0 0 211.19 4.18">
                    <g id="Layer_2" data-name="Layer 2">
                        <g id="Layer_1-2" data-name="Layer 1">
                            <path d="M1.84,1.85H.73v.79H2.07V3.2H0V0H2.07V.61H.73v.68H1.84Z" />
                            <path d="M4.58,1.3H3.85V.69h.73Zm0,1.9H3.85V2.59h.73Z" />
                            <path d="M10.8,1.93H9.64V3.2H8.91V0H11V.61H9.64v.76H10.8Z" />
                            <path d="M13.49,3.2h-.73V0h.73Z" />
                            <path d="M16.11,2.64h1.35V3.2H15.37V0h.74Z" />
                            <path d="M20,3.2h-.73V0H20Z" />
                            <path
                                d="M22.57,2.12V3.2h-.73V0h1.21a1.32,1.32,0,0,1,.89.29.94.94,0,0,1,.33.75.94.94,0,0,1-.33.75,1.32,1.32,0,0,1-.89.29Zm0-.56h.48a.47.47,0,0,0,.36-.14.45.45,0,0,0,.13-.33.52.52,0,0,0-.13-.35.45.45,0,0,0-.36-.13h-.48Z" />
                            <path
                                d="M29.5,2.07a1.39,1.39,0,0,1-.29.83.93.93,0,0,1-.79.35.55.55,0,0,1-.31-.1.62.62,0,0,1-.18-.28.78.78,0,0,1-.22.28.57.57,0,0,1-.32.09A.56.56,0,0,1,26.9,3a1,1,0,0,1-.13-.68,1.71,1.71,0,0,1,.32-.87.77.77,0,0,1,.63-.33,1.17,1.17,0,0,1,.42.06,1.44,1.44,0,0,1,.36.17h0l-.11,1.23a.63.63,0,0,0,0,.26s.06.07.1.07a.45.45,0,0,0,.39-.24,1.14,1.14,0,0,0,.16-.59A1.6,1.6,0,0,0,28.77.93a1.15,1.15,0,0,0-1-.41,1.31,1.31,0,0,0-1,.44,1.88,1.88,0,0,0-.42,1.21,1.66,1.66,0,0,0,.31,1.17,1.23,1.23,0,0,0,1,.43,1.61,1.61,0,0,0,.37,0,1.75,1.75,0,0,0,.34-.1l.09.36a1.14,1.14,0,0,1-.37.14,2,2,0,0,1-1.79-.49,2,2,0,0,1-.44-1.47A2.23,2.23,0,0,1,26.4.69,1.85,1.85,0,0,1,27.79.14a1.64,1.64,0,0,1,1.29.52A2,2,0,0,1,29.5,2.07Zm-2.19.23a.88.88,0,0,0,0,.39.2.2,0,0,0,.19.14.37.37,0,0,0,.2-.07.46.46,0,0,0,.17-.24l.08-1-.09,0h-.09a.39.39,0,0,0-.35.2A1.52,1.52,0,0,0,27.31,2.3Z" />
                            <path
                                d="M32,2V3.2h-.74V0h1.1a1.35,1.35,0,0,1,.87.26.82.82,0,0,1,.32.69.7.7,0,0,1-.12.42A.94.94,0,0,1,33,1.7a.69.69,0,0,1,.41.27.82.82,0,0,1,.13.48v.2a1,1,0,0,0,0,.28.36.36,0,0,0,.12.23v0H33A.34.34,0,0,1,32.87,3c0-.11,0-.21,0-.31V2.46a.48.48,0,0,0-.12-.35A.48.48,0,0,0,32.38,2Zm0-.56h.37a.55.55,0,0,0,.34-.1A.4.4,0,0,0,32.81,1a.41.41,0,0,0-.12-.31.45.45,0,0,0-.34-.12H32Z" />
                            <path d="M37.26,1.85H36.15v.79h1.33V3.2H35.42V0h2.07V.61H36.15v.68h1.11Z" />
                            <path
                                d="M41.72,2.77a1.41,1.41,0,0,1-.46.34,1.89,1.89,0,0,1-.77.14,1.31,1.31,0,0,1-1-.36A1.27,1.27,0,0,1,39.17,2V1.29a1.29,1.29,0,0,1,.35-.93A1.25,1.25,0,0,1,40.44,0a1.34,1.34,0,0,1,.91.27.89.89,0,0,1,.3.74H41a.44.44,0,0,0-.12-.34.54.54,0,0,0-.38-.12.51.51,0,0,0-.41.2.88.88,0,0,0-.15.53V2a.86.86,0,0,0,.15.53.51.51,0,0,0,.44.2,1.24,1.24,0,0,0,.31,0A.48.48,0,0,0,41,2.56V2h-.56V1.51h1.29Z" />
                            <path d="M44.27,3.2h-.73V0h.73Z" />
                            <path
                                d="M47.78,2.36a.31.31,0,0,0-.11-.25,1.54,1.54,0,0,0-.41-.2,3,3,0,0,1-.87-.4.73.73,0,0,1-.28-.62.75.75,0,0,1,.33-.64A1.33,1.33,0,0,1,47.28,0a1.38,1.38,0,0,1,.87.25.82.82,0,0,1,.32.71V1h-.71a.42.42,0,0,0-.12-.33.59.59,0,0,0-.36-.1.46.46,0,0,0-.32.1.3.3,0,0,0-.11.24.25.25,0,0,0,.12.22,1.63,1.63,0,0,0,.44.21,2.38,2.38,0,0,1,.83.4.82.82,0,0,1,.28.64.75.75,0,0,1-.33.65,1.39,1.39,0,0,1-.86.24A1.57,1.57,0,0,1,46.41,3a.86.86,0,0,1-.36-.79h.72a.5.5,0,0,0,.14.39.59.59,0,0,0,.41.11.53.53,0,0,0,.34-.09A.29.29,0,0,0,47.78,2.36Z" />
                            <path d="M52.43.61H51.6V3.2h-.73V.61h-.82V0h2.38Z" />
                            <path d="M54.84,3.2h-.73V0h.73Z" />
                            <path
                                d="M57.91,1.11,58.43,0h.84l-.9,1.57,1,1.59h-.88l-.54-1.08L57.38,3.2h-.85l.93-1.59L56.56,0h.84Z" />
                            <path
                                d="M61.65,2V3.2h-.73V0H62a1.39,1.39,0,0,1,.87.26.85.85,0,0,1,.32.69.64.64,0,0,1-.13.42.88.88,0,0,1-.38.29.75.75,0,0,1,.42.27.9.9,0,0,1,.12.48v.2a1.57,1.57,0,0,0,0,.28.42.42,0,0,0,.13.23v0h-.76A.34.34,0,0,1,62.54,3a1.71,1.71,0,0,1,0-.31V2.46a.48.48,0,0,0-.12-.35A.46.46,0,0,0,62,2Zm0-.56H62a.55.55,0,0,0,.34-.1A.37.37,0,0,0,62.48,1a.41.41,0,0,0-.12-.31A.45.45,0,0,0,62,.61h-.37Z" />
                            <path d="M65.82,2.64h1.35V3.2H65.08V0h.74Z" />
                            <path
                                d="M69.63,2.12V3.2h-.74V0H70.1A1.32,1.32,0,0,1,71,.33a.94.94,0,0,1,.33.75.94.94,0,0,1-.33.75,1.32,1.32,0,0,1-.89.29Zm0-.56h.47a.46.46,0,0,0,.36-.14.42.42,0,0,0,.13-.33.48.48,0,0,0-.13-.35A.45.45,0,0,0,70.1.61h-.47Z" />
                            <path d="M73,3.2h-.74V2.59H73Z" />
                            <path
                                d="M77.28,2.14h0A1,1,0,0,1,77,3a1.34,1.34,0,0,1-.89.28,1.27,1.27,0,0,1-.94-.36A1.3,1.3,0,0,1,74.8,2V1.29a1.29,1.29,0,0,1,.34-.93A1.19,1.19,0,0,1,76,0,1.38,1.38,0,0,1,77,.28a1,1,0,0,1,.32.81v0h-.71a.59.59,0,0,0-.12-.42A.59.59,0,0,0,76,.56a.44.44,0,0,0-.38.2.93.93,0,0,0-.13.53V2a.92.92,0,0,0,.14.53.48.48,0,0,0,.42.2.46.46,0,0,0,.36-.12.62.62,0,0,0,.12-.42Z" />
                            <path
                                d="M81.64,1.91a1.28,1.28,0,0,1-1.33,1.34,1.33,1.33,0,0,1-1-.38,1.3,1.3,0,0,1-.37-1V1.34a1.3,1.3,0,0,1,.37-1,1.43,1.43,0,0,1,1.94,0,1.3,1.3,0,0,1,.37,1Zm-.73-.58a.88.88,0,0,0-.16-.55A.52.52,0,0,0,80.3.56a.5.5,0,0,0-.45.22.88.88,0,0,0-.16.55v.58a.91.91,0,0,0,.16.56.55.55,0,0,0,.46.21.51.51,0,0,0,.44-.21.91.91,0,0,0,.16-.56Z" />
                            <path d="M85.09,2.25h0L85.81,0h1V3.2h-.73v-2h0l-.7,2h-.49l-.68-2h0v2h-.73V0h1Z" />
                            <path d="M91.64,3.79h-.53V0h.53Z" />
                            <path d="M97.62,2.25h0L98.35,0h1V3.2h-.73v-2h0l-.69,2h-.5l-.68-2h0v2H96V0h1Z" />
                            <path d="M101.93,1.3h-.73V.69h.73Zm0,1.9h-.73V2.59h.73Z" />
                            <path
                                d="M107.19,2.68a.39.39,0,0,0,.32-.15.66.66,0,0,0,.13-.44V1.91a.69.69,0,0,1-.25.2.73.73,0,0,1-.3.06.81.81,0,0,1-.67-.29,1.12,1.12,0,0,1-.25-.77,1.1,1.1,0,0,1,.31-.79,1.08,1.08,0,0,1,.8-.32,1,1,0,0,1,.78.33,1.28,1.28,0,0,1,.31.92V2a1.18,1.18,0,0,1-.33.88,1.18,1.18,0,0,1-.85.33,2.09,2.09,0,0,1-.34,0,2.07,2.07,0,0,1-.33-.1l.12-.52a1.8,1.8,0,0,0,.27.07A1.19,1.19,0,0,0,107.19,2.68Zm.06-1a.56.56,0,0,0,.23,0,.51.51,0,0,0,.16-.13V1.11a.69.69,0,0,0-.1-.41.33.33,0,0,0-.27-.14.32.32,0,0,0-.27.17.74.74,0,0,0-.1.38.75.75,0,0,0,.09.39A.28.28,0,0,0,107.25,1.64Z" />
                            <path d="M111.72,3.2H111V.67h-.64V.11L111.72,0Z" />
                            <path
                                d="M115,2.68a.43.43,0,0,0,.33-.15.72.72,0,0,0,.13-.44V1.91a.79.79,0,0,1-.25.2.77.77,0,0,1-.3.06.83.83,0,0,1-.68-.29,1.16,1.16,0,0,1-.24-.77,1.06,1.06,0,0,1,.31-.79,1.12,1.12,0,0,1,1.58,0,1.33,1.33,0,0,1,.31.92V2a1.19,1.19,0,0,1-.34.88,1.16,1.16,0,0,1-.85.33,1.86,1.86,0,0,1-.33,0,1.91,1.91,0,0,1-.34-.1l.13-.52a1.45,1.45,0,0,0,.26.07A1.23,1.23,0,0,0,115,2.68Zm.07-1a.51.51,0,0,0,.22,0,.55.55,0,0,0,.17-.13V1.11a.69.69,0,0,0-.11-.41.3.3,0,0,0-.26-.14.29.29,0,0,0-.27.17.65.65,0,0,0-.1.38.75.75,0,0,0,.09.39A.27.27,0,0,0,115.06,1.64Z" />
                            <path d="M119.28,2.12H118V1.56h1.28Z" />
                            <path
                                d="M123.35,3.2h-2.2V2.72l1-1.06a2.47,2.47,0,0,0,.28-.4.64.64,0,0,0,.09-.3.5.5,0,0,0-.08-.29.32.32,0,0,0-.26-.11.31.31,0,0,0-.27.14.69.69,0,0,0-.1.36h-.72a1,1,0,0,1,.29-.75,1.09,1.09,0,0,1,.8-.3,1.16,1.16,0,0,1,.8.25.94.94,0,0,1,.28.71,1,1,0,0,1-.16.53,6.08,6.08,0,0,1-.57.68l-.38.46h1.22Z" />
                            <path
                                d="M126.32,0a1.51,1.51,0,0,1,.32,0,2.85,2.85,0,0,1,.32.1l-.12.54a1.13,1.13,0,0,0-.26-.07,1,1,0,0,0-.26,0,.54.54,0,0,0-.43.2.81.81,0,0,0-.16.56v0a.81.81,0,0,1,.29-.19,1.23,1.23,0,0,1,.39-.06.73.73,0,0,1,.63.29,1.23,1.23,0,0,1,.22.77A1,1,0,0,1,127,3a1.08,1.08,0,0,1-.79.3,1.11,1.11,0,0,1-.84-.34A1.29,1.29,0,0,1,125,2V1.34a1.28,1.28,0,0,1,.37-1A1.29,1.29,0,0,1,126.32,0Zm-.15,1.67a.68.68,0,0,0-.27.05.34.34,0,0,0-.17.11V2a1.07,1.07,0,0,0,.11.53.36.36,0,0,0,.32.18.33.33,0,0,0,.27-.14.61.61,0,0,0,.1-.36.58.58,0,0,0-.1-.37A.31.31,0,0,0,126.17,1.67Z" />
                            <path
                                d="M131.12,2a1.26,1.26,0,0,1-.3.89,1.15,1.15,0,0,1-1.59,0,1.26,1.26,0,0,1-.3-.89V1.21a1.29,1.29,0,0,1,.29-.89,1.16,1.16,0,0,1,1.6,0,1.24,1.24,0,0,1,.3.89Zm-.73-.88a.81.81,0,0,0-.1-.45A.29.29,0,0,0,130,.56a.32.32,0,0,0-.27.15.92.92,0,0,0-.09.45v.93a.88.88,0,0,0,.09.44.32.32,0,0,0,.28.15.32.32,0,0,0,.27-.15.88.88,0,0,0,.09-.44Z" />
                            <path d="M134.21,2.12h-1.28V1.56h1.28Z" />
                            <path
                                d="M137.06,2.68a.39.39,0,0,0,.32-.15.66.66,0,0,0,.13-.44V1.91a.76.76,0,0,1-.24.2.89.89,0,0,1-1-.23,1.17,1.17,0,0,1-.25-.77,1.1,1.1,0,0,1,.31-.79,1.08,1.08,0,0,1,.8-.32,1,1,0,0,1,.78.33,1.28,1.28,0,0,1,.31.92V2a1.18,1.18,0,0,1-.33.88,1.18,1.18,0,0,1-.85.33,2.09,2.09,0,0,1-.34,0,2.07,2.07,0,0,1-.33-.1l.13-.52a1.45,1.45,0,0,0,.26.07A1.19,1.19,0,0,0,137.06,2.68Zm.07-1a.54.54,0,0,0,.22,0,.42.42,0,0,0,.16-.13V1.11a.69.69,0,0,0-.1-.41.33.33,0,0,0-.27-.14.32.32,0,0,0-.27.17.74.74,0,0,0-.1.38.75.75,0,0,0,.09.39A.29.29,0,0,0,137.13,1.64Z" />
                            <path d="M141.59,3.2h-.73V.67h-.64V.11L141.59,0Z" />
                            <path
                                d="M143.94,1.81,144.12,0H146V.61h-1.26l-.08.66a.7.7,0,0,1,.23-.1,1,1,0,0,1,.3,0,.83.83,0,0,1,.68.26,1.18,1.18,0,0,1,.23.79,1.08,1.08,0,0,1-.26.76,1,1,0,0,1-.83.31,1.34,1.34,0,0,1-.79-.24.73.73,0,0,1-.32-.63h0l.71,0a.35.35,0,0,0,.11.26.41.41,0,0,0,.28.09.31.31,0,0,0,.28-.12.73.73,0,0,0,.08-.37.8.8,0,0,0-.09-.41.32.32,0,0,0-.3-.15.41.41,0,0,0-.23.06.4.4,0,0,0-.13.16Z" />
                            <path
                                d="M147.84,1.81,148,0h1.85V.61h-1.25l-.08.66a.56.56,0,0,1,.22-.1,1,1,0,0,1,.3,0,.82.82,0,0,1,.68.26,1.18,1.18,0,0,1,.24.79,1.09,1.09,0,0,1-.27.76,1,1,0,0,1-.83.31A1.29,1.29,0,0,1,148.1,3a.69.69,0,0,1-.32-.63h0l.72,0a.34.34,0,0,0,.1.26.41.41,0,0,0,.28.09.3.3,0,0,0,.28-.12.64.64,0,0,0,.08-.37.8.8,0,0,0-.09-.41.32.32,0,0,0-.29-.15.43.43,0,0,0-.24.06.31.31,0,0,0-.12.16Z" />
                            <path d="M154.76,3.79h-.54V0h.54Z" />
                            <path
                                d="M159.8,2.12V3.2h-.73V0h1.21a1.32,1.32,0,0,1,.89.29.94.94,0,0,1,.33.75.94.94,0,0,1-.33.75,1.32,1.32,0,0,1-.89.29Zm0-.56h.48a.47.47,0,0,0,.36-.14.45.45,0,0,0,.13-.33.52.52,0,0,0-.13-.35.45.45,0,0,0-.36-.13h-.48Z" />
                            <path d="M163.13,1.3h-.73V.69h.73Zm0,1.9h-.73V2.59h.73Z" />
                            <path
                                d="M168.39,2.68a.43.43,0,0,0,.33-.15.72.72,0,0,0,.13-.44V1.91a.79.79,0,0,1-.25.2.73.73,0,0,1-.3.06.83.83,0,0,1-.68-.29,1.16,1.16,0,0,1-.24-.77,1.06,1.06,0,0,1,.31-.79,1.05,1.05,0,0,1,.79-.32,1,1,0,0,1,.79.33,1.33,1.33,0,0,1,.31.92V2a1.19,1.19,0,0,1-.34.88,1.16,1.16,0,0,1-.85.33,2,2,0,0,1-.33,0,1.91,1.91,0,0,1-.34-.1l.13-.52a1.45,1.45,0,0,0,.26.07A1.23,1.23,0,0,0,168.39,2.68Zm.07-1a.51.51,0,0,0,.22,0,.55.55,0,0,0,.17-.13V1.11a.69.69,0,0,0-.11-.41.3.3,0,0,0-.26-.14.29.29,0,0,0-.27.17.65.65,0,0,0-.1.38.75.75,0,0,0,.09.39A.27.27,0,0,0,168.46,1.64Z" />
                            <path d="M172.92,3.2h-.73V.67h-.63V.11L172.92,0Z" />
                            <path
                                d="M176.2,2.68a.39.39,0,0,0,.32-.15.66.66,0,0,0,.13-.44V1.91a.69.69,0,0,1-.25.2.73.73,0,0,1-.3.06.81.81,0,0,1-.67-.29,1.12,1.12,0,0,1-.25-.77,1.1,1.1,0,0,1,.31-.79,1.08,1.08,0,0,1,.8-.32,1,1,0,0,1,.78.33,1.28,1.28,0,0,1,.31.92V2a1.15,1.15,0,0,1-.34.88,1.14,1.14,0,0,1-.84.33,2.09,2.09,0,0,1-.34,0,1.8,1.8,0,0,1-.33-.1l.12-.52a1.54,1.54,0,0,0,.27.07A1.19,1.19,0,0,0,176.2,2.68Zm.06-1a.56.56,0,0,0,.23,0,.51.51,0,0,0,.16-.13V1.11a.69.69,0,0,0-.1-.41.33.33,0,0,0-.27-.14.32.32,0,0,0-.27.17.74.74,0,0,0-.1.38.75.75,0,0,0,.09.39A.28.28,0,0,0,176.26,1.64Z" />
                            <path d="M180.48,2.12H179.2V1.56h1.28Z" />
                            <path
                                d="M184.55.61a3.48,3.48,0,0,0-.69,1,3.22,3.22,0,0,0-.19,1.13V3.2h-.73V2.79a2.93,2.93,0,0,1,.23-1.16,3.56,3.56,0,0,1,.68-1h-1.58V0h2.28Z" />
                            <path d="M187.86,3.2h-.73V.67h-.64V.11L187.86,0Z" />
                            <path
                                d="M192.33,2a1.26,1.26,0,0,1-.3.89,1.16,1.16,0,0,1-1.6,0,1.26,1.26,0,0,1-.3-.89V1.21a1.24,1.24,0,0,1,.3-.89,1.06,1.06,0,0,1,.8-.32,1.08,1.08,0,0,1,.8.32,1.24,1.24,0,0,1,.3.89Zm-.73-.88a.81.81,0,0,0-.1-.45.32.32,0,0,0-.27-.15.29.29,0,0,0-.27.15.81.81,0,0,0-.1.45v.93a.78.78,0,0,0,.1.44.32.32,0,0,0,.54,0,.78.78,0,0,0,.1-.44Z" />
                            <path d="M195.42,2.12h-1.28V1.56h1.28Z" />
                            <path
                                d="M199.41.87a.72.72,0,0,1-.11.41.88.88,0,0,1-.32.28.89.89,0,0,1,.4.31.69.69,0,0,1,.15.44.82.82,0,0,1-.32.69,1.24,1.24,0,0,1-.81.25,1.4,1.4,0,0,1-.84-.25.81.81,0,0,1-.33-.69.69.69,0,0,1,.15-.44.89.89,0,0,1,.42-.31.86.86,0,0,1-.34-.28.73.73,0,0,1-.12-.41.75.75,0,0,1,.3-.64A1.21,1.21,0,0,1,198.4,0a1.12,1.12,0,0,1,.73.23A.76.76,0,0,1,199.41.87Zm-.61,1.4a.39.39,0,0,0-.12-.3.36.36,0,0,0-.28-.12.43.43,0,0,0-.31.12.39.39,0,0,0-.12.3.38.38,0,0,0,.12.3.42.42,0,0,0,.31.11.34.34,0,0,0,.28-.11A.38.38,0,0,0,198.8,2.27ZM198.68.91a.4.4,0,0,0-.07-.26.26.26,0,0,0-.21-.09.32.32,0,0,0-.24.09.4.4,0,0,0-.08.26.38.38,0,0,0,.09.27.26.26,0,0,0,.23.1.24.24,0,0,0,.21-.1A.43.43,0,0,0,198.68.91Z" />
                            <path
                                d="M202.46,0a1.51,1.51,0,0,1,.32,0,2.85,2.85,0,0,1,.32.1L203,.67a1.13,1.13,0,0,0-.26-.07,1,1,0,0,0-.26,0,.54.54,0,0,0-.43.2.81.81,0,0,0-.16.56v0a.81.81,0,0,1,.29-.19,1.23,1.23,0,0,1,.39-.06.73.73,0,0,1,.63.29,1.23,1.23,0,0,1,.22.77,1,1,0,0,1-.31.77,1.08,1.08,0,0,1-.79.3,1.11,1.11,0,0,1-.84-.34,1.29,1.29,0,0,1-.32-.94V1.34a1.28,1.28,0,0,1,.37-1A1.29,1.29,0,0,1,202.46,0Zm-.15,1.67a.72.72,0,0,0-.27.05.34.34,0,0,0-.17.11V2a1.07,1.07,0,0,0,.11.53.36.36,0,0,0,.32.18.33.33,0,0,0,.27-.14.61.61,0,0,0,.1-.36.58.58,0,0,0-.1-.37A.31.31,0,0,0,202.31,1.67Z" />
                            <path
                                d="M206.07,2.68a.39.39,0,0,0,.32-.15.66.66,0,0,0,.13-.44V1.91a.76.76,0,0,1-.24.2.89.89,0,0,1-1-.23,1.17,1.17,0,0,1-.25-.77,1.1,1.1,0,0,1,.31-.79,1.08,1.08,0,0,1,.8-.32,1,1,0,0,1,.78.33,1.28,1.28,0,0,1,.31.92V2a1.18,1.18,0,0,1-.33.88,1.18,1.18,0,0,1-.85.33,2.09,2.09,0,0,1-.34,0,2.07,2.07,0,0,1-.33-.1l.13-.52a1.45,1.45,0,0,0,.26.07A1.19,1.19,0,0,0,206.07,2.68Zm.06-1a.56.56,0,0,0,.23,0,.51.51,0,0,0,.16-.13V1.11a.69.69,0,0,0-.1-.41.33.33,0,0,0-.27-.14.32.32,0,0,0-.27.17.74.74,0,0,0-.1.38.75.75,0,0,0,.09.39A.28.28,0,0,0,206.13,1.64Z" />
                            <path
                                d="M211.19.61a3.91,3.91,0,0,0-.69,1,3.23,3.23,0,0,0-.18,1.13V3.2h-.74V2.79a2.93,2.93,0,0,1,.23-1.16,3.78,3.78,0,0,1,.68-1h-1.58V0h2.28Z" />
                        </g>
                    </g>
                </svg>