<svg xmlns="http://www.w3.org/2000/svg" viewBox="0 0 216.98 6.93">
                    <defs>
                        <style>
                            .cls-1 {
                                fill: #afafaf;
                            }

                            .cls-2 {
                                fill: #272828;
                            }

                            .cls-3 {
                                fill: #d3e700;
                            }

                            .cls-4 {
                                fill: #010101;
                            }

                            .cls-5 {
                                fill: #5c94d7;
                            }

                            .cls-6 {
                                fill: #f8f8f8;
                            }

                            .cls-7 {
                                fill: #5f97da;
                            }

                            .cls-8 {
                                fill: #5c8fcd;
                            }

                            .cls-9 {
                                fill: #6d90bb;
                            }

                            .cls-10 {
                                fill: #fafafa;
                            }

                            .cls-11 {
                                fill: #f4f6f8;
                            }

                            .cls-12 {
                                fill: #e8eff7;
                            }

                            .cls-13 {
                                fill: #f6f8fa;
                            }

                            .cls-14 {
                                fill: #f6f7f9;
                            }
                        </style>
                    </defs>
                    <title>row_3_full_new</title>
                    <g id="Layer_2" data-name="Layer 2">
                        <g id="Layer_1-2" data-name="Layer 1">
                            <path class="cls-1"
                                d="M6.2.13H8.62L8.46,1H7l-.13.7H8.1L8,2.47H6.71l-.17.81H8l-.16.82H5.41Z" />
                            <path class="cls-1"
                                d="M9.47,2.49A2.26,2.26,0,0,1,11.67.06a1.22,1.22,0,0,1,1.14.65l-.66.51A.59.59,0,0,0,11.62.9c-.64,0-1.15.67-1.15,1.53,0,.57.22.91.78.91a.64.64,0,0,0,.34-.09l.15-.66h-.59l.15-.8h1.44l-.38,2a2.17,2.17,0,0,1-1.28.41A1.51,1.51,0,0,1,9.47,2.49Z" />
                            <path class="cls-1" d="M14.47.13h1l-.8,4h-1Z" />
                            <path class="cls-1"
                                d="M16,3.41l.7-.55a1.07,1.07,0,0,0,.83.48c.28,0,.46-.12.46-.34s-.17-.26-.45-.43l-.34-.21a1.11,1.11,0,0,1-.59-1A1.38,1.38,0,0,1,18.1.06a1.6,1.6,0,0,1,1.23.62l-.61.57A.94.94,0,0,0,18.07.9c-.29,0-.43.16-.43.35s.17.23.49.43l.37.23a1,1,0,0,1,.53,1,1.38,1.38,0,0,1-1.54,1.31A1.77,1.77,0,0,1,16,3.41Z" />
                            <path class="cls-1" d="M21.22,1h-1l.16-.82h3L23.2,1h-1L21.57,4.1h-1Z" />
                            <path class="cls-1" d="M24.58.13h1l-.79,4h-1Z" />
                            <path class="cls-1"
                                d="M27.37,2.06,26.77.13h1.09l.14.7c0,.18.08.4.14.65h0c.13-.25.26-.47.37-.65l.39-.7h1l-1.37,2,.64,2H28.14L28,3.33c0-.2-.1-.41-.15-.64h0l-.37.64L27,4.1h-1Z" />
                            <path class="cls-2" d="M33.14.07h2.08l0,.16H33.28L32.94,2h1.61l0,.16h-1.6l-.4,2h-.19Z" />
                            <path class="cls-2"
                                d="M36.48.07h1c.72,0,1.16.26,1.16.87,0,.78-.65,1.27-1.52,1.27h-.86L35.86,4.1h-.18Zm.54,2c.9,0,1.41-.41,1.41-1.1,0-.52-.36-.72-1.08-.72h-.72l-.36,1.82Zm.07.15.17-.08.82,2h-.21Z" />
                            <path class="cls-2"
                                d="M40.28.07h2.08l0,.16H40.42l-.33,1.65H41.7l0,.16h-1.6l-.39,1.9h2l0,.16H39.47Z" />
                            <path class="cls-2" d="M43.84.07H44l-.81,4H43Z" />
                            <path class="cls-2"
                                d="M45.08,2.6c0-1.19.73-2.6,2.09-2.6a1.1,1.1,0,0,1,.93.56L48,.66a.9.9,0,0,0-.79-.5c-1.22,0-1.9,1.37-1.9,2.4,0,.8.35,1.46,1.24,1.46a1.29,1.29,0,0,0,.88-.33l.26-1.36h-1l0-.16h1.15l-.34,1.6a1.51,1.51,0,0,1-1,.4C45.53,4.17,45.08,3.52,45.08,2.6Z" />
                            <path class="cls-2"
                                d="M49.87.07h.18l-.37,1.81h2.18L52.22.07h.18l-.8,4h-.18L51.83,2H49.66L49.24,4.1h-.18Z" />
                            <path class="cls-2" d="M54.94.24H53.68l0-.17h2.7l0,.17H55.12L54.36,4.1h-.19Z" />
                            <path class="cls-3"
                                d="M.59,1.11,0,.09H2.62A1.43,1.43,0,0,1,4,1.57v.12A1.45,1.45,0,0,1,3,2.93l.28.4.56.77H2.61a.38.38,0,0,1-.32-.23L2,3.38,1.1,2H2.59a.42.42,0,0,0,.29-.18.41.41,0,0,0,0-.46.48.48,0,0,0-.32-.22C2.15,1.09.59,1.11.59,1.11Z" />
                            <path d="M4.07,6.54v-1H3.74V5.3h1v.27H4.4v1Z" />
                            <path d="M5.49,6.54V5.3h.33v.46h.37V5.3h.33V6.54H6.19V6.05H5.82v.49Z" />
                            <path d="M7.37,6.54V5.3h.8v.27H7.7v.2h.4V6H7.7v.23h.49v.27Z" />
                            <path
                                d="M10.06,6.54,9.84,5.3h.34l.07.54a1.36,1.36,0,0,0,0,.2c0,.06,0,.13,0,.19h0l0-.19a1.42,1.42,0,0,1,0-.2l.12-.54h.27l.12.54,0,.19c0,.07,0,.14,0,.2h0L11,6a1.23,1.23,0,0,1,0-.19l.07-.54h.31l-.21,1.24h-.41l-.1-.49,0-.15c0-.05,0-.1,0-.14h0a.59.59,0,0,0,0,.14l0,.15-.09.49Z" />
                            <path
                                d="M12.63,6.56a.59.59,0,0,1-.23,0,.46.46,0,0,1-.18-.13.56.56,0,0,1-.12-.2.79.79,0,0,1,0-.28.77.77,0,0,1,0-.27.56.56,0,0,1,.12-.2.44.44,0,0,1,.18-.12.59.59,0,0,1,.23-.05.6.6,0,0,1,.24.05.44.44,0,0,1,.18.12.67.67,0,0,1,.12.2.77.77,0,0,1,0,.27.79.79,0,0,1,0,.28.56.56,0,0,1-.12.2.46.46,0,0,1-.18.13A.61.61,0,0,1,12.63,6.56Zm0-.28a.19.19,0,0,0,.18-.1.49.49,0,0,0,.06-.27.48.48,0,0,0-.06-.26.2.2,0,0,0-.18-.09.2.2,0,0,0-.17.09.4.4,0,0,0-.07.26.41.41,0,0,0,.07.27A.19.19,0,0,0,12.63,6.28Z" />
                            <path
                                d="M14,6.54V5.3h.47a.62.62,0,0,1,.19,0,.44.44,0,0,1,.16.06.43.43,0,0,1,.11.12.59.59,0,0,1,0,.2.38.38,0,0,1-.06.22.34.34,0,0,1-.15.14l.27.48h-.36l-.22-.42h-.12v.42Zm.33-.68h.11c.14,0,.2-.05.2-.16s0-.09-.05-.11a.28.28,0,0,0-.15,0h-.11Z" />
                            <path d="M15.79,6.54V5.3h.33v1h.47v.27Z" />
                            <path
                                d="M17.37,6.54V5.3h.37a1,1,0,0,1,.26,0,.55.55,0,0,1,.2.11.43.43,0,0,1,.13.19.78.78,0,0,1,.05.28.65.65,0,0,1-.05.29.43.43,0,0,1-.13.19A.45.45,0,0,1,18,6.5a.69.69,0,0,1-.25,0Zm.33-.26h0l.13,0A.21.21,0,0,0,18,6.2.23.23,0,0,0,18,6.09a.74.74,0,0,0,0-.18.72.72,0,0,0,0-.17A.23.23,0,0,0,18,5.63a.19.19,0,0,0-.1,0l-.13,0h0Z" />
                            <path
                                d="M20.66,6.56a.61.61,0,0,1-.24,0,.46.46,0,0,1-.18-.13.56.56,0,0,1-.12-.2.79.79,0,0,1,0-.28.77.77,0,0,1,0-.27.56.56,0,0,1,.12-.2.44.44,0,0,1,.18-.12.6.6,0,0,1,.24-.05.59.59,0,0,1,.23.05.44.44,0,0,1,.18.12.67.67,0,0,1,.12.2.77.77,0,0,1,0,.27.79.79,0,0,1,0,.28.56.56,0,0,1-.12.2.46.46,0,0,1-.18.13A.59.59,0,0,1,20.66,6.56Zm0-.28a.19.19,0,0,0,.17-.1.41.41,0,0,0,.07-.27.4.4,0,0,0-.07-.26.2.2,0,0,0-.17-.09.2.2,0,0,0-.18.09.47.47,0,0,0-.07.26.48.48,0,0,0,.07.27A.19.19,0,0,0,20.66,6.28Z" />
                            <path d="M22,6.54V5.3h.81v.27h-.48v.24h.41v.28h-.41v.45Z" />
                            <path d="M24.58,6.54V5.3h.82v.27h-.49v.24h.42v.28h-.42v.45Z" />
                            <path
                                d="M26.18,6.54V5.3h.47a.58.58,0,0,1,.19,0,.34.34,0,0,1,.16.06.32.32,0,0,1,.11.12.42.42,0,0,1,0,.2.48.48,0,0,1,0,.22.4.4,0,0,1-.15.14l.27.48h-.37l-.21-.42h-.13v.42Zm.33-.68h.12c.13,0,.2-.05.2-.16a.13.13,0,0,0,0-.11.31.31,0,0,0-.15,0h-.12Z" />
                            <path d="M28,6.54V5.3h.81v.27h-.48v.2h.41V6h-.41v.23h.49v.27Z" />
                            <path d="M29.6,6.54V5.3h.33V6.54Z" />
                            <path
                                d="M31.35,6.56a.61.61,0,0,1-.24,0,.43.43,0,0,1-.2-.11.56.56,0,0,1-.14-.2.81.81,0,0,1,0-.56.6.6,0,0,1,.14-.2.46.46,0,0,1,.2-.13.59.59,0,0,1,.23-.05.57.57,0,0,1,.24.05.74.74,0,0,1,.17.12l-.17.21-.1-.07-.13,0-.11,0-.1.07-.06.12a.61.61,0,0,0,0,.15.41.41,0,0,0,.08.27.3.3,0,0,0,.25.09h.05l0,0V6.09H31.3V5.82h.47v.59a.5.5,0,0,1-.18.11A.61.61,0,0,1,31.35,6.56Z" />
                            <path d="M32.59,6.54V5.3h.33v.46h.37V5.3h.33V6.54h-.33V6.05h-.37v.49Z" />
                            <path d="M34.7,6.54v-1h-.33V5.3h1v.27H35v1Z" />
                            <path
                                d="M35.9,6.93l-.06-.17a.45.45,0,0,0,.17-.1.19.19,0,0,0,.06-.13h0a.24.24,0,0,1-.14,0,.15.15,0,0,1-.05-.13.14.14,0,0,1,.05-.13.19.19,0,0,1,.14,0,.21.21,0,0,1,.17.07.48.48,0,0,1,.05.22.49.49,0,0,1-.09.3A.52.52,0,0,1,35.9,6.93Z" />
                            <path
                                d="M38,6.54V5.3h.47a.58.58,0,0,1,.19,0,.44.44,0,0,1,.16.06A.32.32,0,0,1,39,5.5a.59.59,0,0,1,0,.2.38.38,0,0,1-.06.22.32.32,0,0,1-.14.14l.27.48H38.7l-.21-.42h-.13v.42Zm.33-.68h.12c.13,0,.2-.05.2-.16a.13.13,0,0,0,0-.11.33.33,0,0,0-.15,0h-.12Z" />
                            <path d="M39.81,6.54V5.3h.8v.27h-.47v.2h.4V6h-.4v.23h.49v.27Z" />
                            <path d="M41.45,6.54V5.3h.33V6.54Z" />
                            <path
                                d="M42.62,6.54V5.3H43l.18.51,0,.1,0,.11h0l0-.11,0-.1.18-.51h.35V6.54h-.3V6.17s0-.06,0-.1,0-.08,0-.12,0-.08,0-.12l0-.1h0l-.1.3-.16.41h-.17L43,6l-.1-.3h0a.38.38,0,0,0,0,.1s0,.08,0,.12a.49.49,0,0,1,0,.12.38.38,0,0,1,0,.1v.37Z" />
                            <path
                                d="M44.52,6.54,44.9,5.3h.4l.38,1.24h-.35l-.06-.26h-.35l-.06.26Zm.48-.6L45,6h.23l0-.08c0-.06,0-.13,0-.2s0-.13,0-.2h0c0,.07,0,.13,0,.2S45,5.88,45,5.94Z" />
                            <path
                                d="M46.93,6.56a.69.69,0,0,1-.25,0,.56.56,0,0,1-.2-.11.69.69,0,0,1-.13-.2.81.81,0,0,1,0-.56.58.58,0,0,1,.13-.2.63.63,0,0,1,.2-.13.69.69,0,0,1,.24-.05.6.6,0,0,1,.24.05,1,1,0,0,1,.17.12l-.18.21-.09-.07-.13,0-.12,0-.09.07a.23.23,0,0,0-.06.12.34.34,0,0,0,0,.15.41.41,0,0,0,.07.27.33.33,0,0,0,.25.09h0l.05,0V6.09h-.19V5.82h.48v.59a.78.78,0,0,1-.18.11A.61.61,0,0,1,46.93,6.56Z" />
                            <path d="M48.16,6.54V5.3h.33V6.54Z" />
                            <path
                                d="M49.34,6.54V5.3h.34l.27.55.12.28h0s0-.07,0-.11,0-.08,0-.12,0-.08,0-.12V5.3h.31V6.54H50L49.74,6l-.12-.27h0l0,.23a1.93,1.93,0,0,1,0,.24v.36Z" />
                            <path d="M51.2,6.54V5.3H52v.27h-.47v.2h.4V6h-.4v.23H52v.27Z" />
                            <path
                                d="M52.84,6.54V5.3h.36a1,1,0,0,1,.26,0,.55.55,0,0,1,.2.11.55.55,0,0,1,.14.19.79.79,0,0,1,0,.28.85.85,0,0,1,0,.29.53.53,0,0,1-.13.19.49.49,0,0,1-.2.11.66.66,0,0,1-.25,0Zm.33-.26h0l.13,0a.21.21,0,0,0,.1-.06.23.23,0,0,0,.07-.11.42.42,0,0,0,0-.18.4.4,0,0,0,0-.17.23.23,0,0,0-.07-.11.19.19,0,0,0-.1,0l-.13,0h0Z" />
                            <path
                                d="M77.1,1.45a8.78,8.78,0,0,1,0,1.23,1.42,1.42,0,0,1-1,1.13,2.27,2.27,0,0,1-1.34,0,1.43,1.43,0,0,1-1.13-1.38c0-.69,0-1.37,0-2.06,0-.14,0-.2.18-.18h0c.31,0,.72-.13.92.06s0,.58.06.89,0,.64,0,1a1.84,1.84,0,0,0,0,.33.53.53,0,0,0,1.06,0,15.7,15.7,0,0,0,0-1.68c0-.55,0-.55.56-.55s.64,0,.64.63Z" />
                            <path
                                d="M100.68.15a2.94,2.94,0,0,1,1.13.21c.15.06.21.12.12.29s-.12.46-.27.59-.39-.09-.6-.12a1.83,1.83,0,0,0-.66,0c-.1,0-.2.06-.21.18s.09.18.19.2l.83.2q1,.26,1,1a1.16,1.16,0,0,1-.92,1.11,2.76,2.76,0,0,1-2.15-.19c-.36-.19.09-.48.12-.74s.1-.21.27-.12a2.29,2.29,0,0,0,1.15.24c.13,0,.27,0,.3-.16s-.13-.22-.26-.25a9.67,9.67,0,0,1-1-.28A1,1,0,0,1,99,1.43a1,1,0,0,1,.52-1A2,2,0,0,1,100.68.15Z" />
                            <path
                                d="M89,.23h1.42c.17,0,.22.05.23.22,0,.74,0,.75-.71.73-.3,0-.37.08-.36.37,0,.68,0,1.36,0,2,0,.19,0,.27-.24.25s-.72.13-.92-.07,0-.57,0-.86c0-.48,0-1,0-1.42,0-.26-.08-.34-.32-.3H88c-.2,0-.49.1-.6-.06s0-.51,0-.78.13-.12.22-.12Z" />
                            <path class="cls-4"
                                d="M64.26,2c0-.52,0-1,0-1.55,0-.19,0-.26.23-.24h.73c.21,0,.26.06.26.26,0,.68,0,1.37,0,2.05,0,.27,0,.38.34.36s.68,0,1,0c.19,0,.27,0,.28.25,0,.7,0,.7-.68.7s-1.22,0-1.82,0c-.31,0-.37-.09-.35-.36C64.28,3,64.26,2.51,64.26,2Z" />
                            <path
                                d="M68.65,2.05c0,.5,0,1,0,1.52,0,.18,0,.28-.25.27s-.7.1-.89-.06-.06-.57-.07-.87c0-.81,0-1.61,0-2.42,0-.22.07-.28.28-.26a4.85,4.85,0,0,0,.66,0c.24,0,.29.07.28.29C68.64,1,68.65,1.54,68.65,2.05Z" />
                            <path class="cls-4"
                                d="M78.85,2.05c0,.5,0,1,0,1.52,0,.23-.07.29-.28.27s-.67.12-.86-.06-.06-.57-.06-.86c0-.8,0-1.61,0-2.41,0-.21,0-.31.27-.28s.71-.13.89.06,0,.57,0,.86Z" />
                            <path class="cls-5"
                                d="M91.35,4.6c.21,0,.42,0,.39.27,0,.11.07.12.16.12s.18,0,.17-.14.05-.28.25-.26.13.2.14.31,0,.42,0,.63,0,.19-.17.18-.2,0-.21-.15,0-.25-.19-.24-.16.12-.16.23-.1.16-.21.16-.18-.07-.18-.19,0-.39,0-.59A.22.22,0,0,1,91.35,4.6Z" />
                            <path class="cls-5"
                                d="M84.92,5.39a.68.68,0,0,1-.82.3.55.55,0,0,1-.38-.49A.52.52,0,0,1,84,4.66a.63.63,0,0,1,.71,0,1,1,0,0,1,.2.22A.36.36,0,0,1,84.92,5.39Z" />
                            <path class="cls-5"
                                d="M90.21,4.86c0,.25-.28.48-.08.75,0,0,0,.09-.06.1a.39.39,0,0,1-.26,0c-.08-.06-.09-.18-.23-.21,0,.12-.08.29-.28.24s-.13-.23-.15-.36V5.19c0-.19-.1-.43.1-.58s.68,0,.88.2l.08.05Z" />
                            <path class="cls-5"
                                d="M87.9,4.8a.77.77,0,0,1,.54-.22.58.58,0,1,1,0,1.15A.91.91,0,0,1,88,5.59.56.56,0,0,1,87.9,4.8Z" />
                            <path class="cls-5"
                                d="M97.76,5.52a.72.72,0,0,1-.76.17.6.6,0,0,1-.33-.77.67.67,0,0,1,.91-.25,1.43,1.43,0,0,1,.23.2C98,5.1,97.89,5.31,97.76,5.52Z" />
                            <path class="cls-5"
                                d="M93.69,5.73a.57.57,0,0,1-.6-.35.55.55,0,0,1,.13-.64.64.64,0,0,1,.71-.1c.08,0,.21.08.15.2a.19.19,0,0,1-.27.11.24.24,0,0,0-.36.1.23.23,0,0,0,.25.33c.17,0,.38-.11.38.13S93.83,5.7,93.69,5.73Z" />
                            <path class="cls-5" d="M77.49,4.36l.63.71c.08.09,0,.16,0,.23l-.69.75V4.45Z" />
                            <path class="cls-5"
                                d="M80.44,4.46l.69.65c.07.07,0,.12,0,.16-.18.19-.36.39-.55.57s-.19.08-.19-.09V4.5Z" />
                            <path class="cls-5"
                                d="M79,5.92V4.46l.08-.06c.2.22.4.45.61.67s.07.16,0,.25-.41.43-.61.65Z" />
                            <path class="cls-5" d="M81.81,6V4.43a8,8,0,0,1,.73.67c.08.08,0,.14,0,.2Z" />
                            <path class="cls-5"
                                d="M74.53,6V4.59c0-.13.07-.16.16-.07l.56.56c.06.06.09.13,0,.2A5.5,5.5,0,0,1,74.53,6Z" />
                            <path class="cls-5"
                                d="M76,5.19c0-.16,0-.33,0-.49s0-.17.06-.2.13.06.18.11c.64.59.64.61,0,1.19,0,0-.09.11-.16.09S76,5.76,76,5.69,76,5.36,76,5.19Z" />
                            <path class="cls-5"
                                d="M85.52,5l.36,0c.11.19.09.31-.15.33s-.27,0-.25.21-.13.15-.24.15-.15-.07-.16-.18a4.49,4.49,0,0,1,0-.82s0,0,0,0c0-.2.15-.17.26-.15s.49-.13.66.11,0,.19-.16.22S85.56,4.85,85.52,5Z" />
                            <path class="cls-5"
                                d="M98.41,4.68c0,.13,0,.26,0,.39s0,.36.29.32.19.17.19.31a2,2,0,0,1-.78,0c-.08,0-.1-.06-.11-.13a4,4,0,0,1,0-.92C98,4.51,98.19,4.51,98.41,4.68Z" />
                            <path class="cls-5"
                                d="M99.34,5.19c0,.11,0,.22,0,.33s0,.19-.16.2-.23,0-.23-.17V4.76c0-.15.11-.17.23-.17s.16.1.16.2S99.34,5.06,99.34,5.19Z" />
                            <path class="cls-6"
                                d="M85.52,5c-.12-.12,0-.16.08-.17h.23c.12,0,.18-.1.12-.18s-.42-.06-.64-.09-.21,0-.21.17v.76c0,.1,0,.17.14.18s.21,0,.21-.14.08-.24.25-.23.22-.11.18-.28c.17.28.14.36-.16.39-.1,0-.2,0-.2.15s-.17.18-.31.18-.16-.14-.16-.25,0-.2-.13-.14V4.93c.21.06.12-.11.12-.18s.07-.23.24-.22h.53c.11,0,.22,0,.23.16s0,.23-.18.25A1.91,1.91,0,0,0,85.52,5Z" />
                            <path class="cls-5"
                                d="M90.27,4.87h-.06c0-.08,0-.19.07-.25a4.42,4.42,0,0,0,.63,0c.09,0,.21,0,.25.09s-.08.14-.16.18a.23.23,0,0,0-.07.07,1.93,1.93,0,0,0,0,.48c0,.1,0,.2-.1.26s-.15,0-.21,0a1.52,1.52,0,0,1,0-.52C90.6,4.91,90.5,4.83,90.27,4.87Z" />
                            <path class="cls-5"
                                d="M90.87,4.93c0-.13.19-.1.25-.23-.28-.11-.57,0-.84-.09a6.3,6.3,0,0,1,1,0c.08.31.06.33-.27.36A.2.2,0,0,1,90.87,4.93Z" />
                            <path class="cls-7"
                                d="M90.27,4.87c.23-.16.32,0,.34.18s0,.41,0,.62a.61.61,0,0,1,0-.44C90.59,5,90.48,4.9,90.27,4.87Z" />
                            <path class="cls-5"
                                d="M87.7,5.06c0-.2.11-.55-.33-.46a2,2,0,0,1,0,.35c-.06.16-.13.13-.19,0-.33-.38-.33-.38-.57-.26a6.41,6.41,0,0,1,0,1c.39.24.3-.14.36-.32.17.06.23.19.33.29a.29.29,0,0,0,.3.08c.13,0,.1-.15.1-.25s0-.13,0-.19A.15.15,0,0,0,87.7,5.06Z" />
                            <path class="cls-8" d="M86.59,4.67a2,2,0,0,1,0,1A5.35,5.35,0,0,1,86.59,4.67Z" />
                            <path class="cls-9"
                                d="M90.87,4.93h.06s0,0,0,0,0,0,0,0c0,.18,0,.36,0,.54s0,.18-.13.18A2.06,2.06,0,0,0,90.87,4.93Z" />
                            <path class="cls-10" d="M91,5l0-.06c.21,0,.39,0,.32-.33h.1l0,.33A.71.71,0,0,1,91,5Z" />
                            <path class="cls-5"
                                d="M100.61,4.91c0-.26-.07-.37-.33-.31a1.43,1.43,0,0,1,0,.36c0,.14-.1.07-.13,0h0a2.07,2.07,0,0,0-.29-.3c-.13-.08-.3-.11-.31.12s0,.53,0,.79a.14.14,0,0,0,.16.16c.1,0,.2,0,.23-.13s0-.17,0-.24.17.2.26.29a.3.3,0,0,0,.31.07c.11,0,.08-.15.08-.23A5.23,5.23,0,0,1,100.61,4.91Z" />
                            <path
                                d="M109.55,2.54c-.29-.14-.58-.31-.89-.48l1.07-.6s0-.06,0-.07C109,1,108.4.7,107.78.34a.47.47,0,0,0-.6,0,1.16,1.16,0,0,1-1.64,0,1,1,0,0,0-.23-.13c-.07,0-.13-.07-.21,0l-2.21,1.2,1.12.63-1.09.63c.32.17.58.32.85.45a.38.38,0,0,1,.25.4c0,.33,0,.66,0,1a.33.33,0,0,0,.21.35c.64.3,1.27.62,1.9.94a.42.42,0,0,0,.43,0c.57-.29,1.13-.59,1.71-.85.32-.14.47-.32.41-.67-.13-.72,0-1.28.84-1.49h0C109.71,2.72,109.74,2.64,109.55,2.54Zm-6-1.12,1.6-.87c.09-.05.14,0,.21,0L106,1l-1.51.81a.32.32,0,0,1-.36,0Zm0,1.25.73-.41a.25.25,0,0,1,.25,0l1.5.82a4.4,4.4,0,0,1-.71.42.19.19,0,0,1-.19,0ZM106,5.42l-1.6-.79a.19.19,0,0,1-.1-.19c0-.32,0-.63,0-1a6.29,6.29,0,0,1,.59.32.5.5,0,0,0,.65,0c.18-.12.38-.21.62-.34V5.33C106.18,5.46,106.11,5.47,106,5.42Zm.84-4.55h0a.86.86,0,0,1,1.2,0,7.82,7.82,0,0,0,1,.57,1,1,0,0,1-1.46.11,5.86,5.86,0,0,0-.78-.42C106.72,1,106.65,1,106.85.87Zm1.35,3.79-1.51.74c-.15.08-.21.06-.21-.12,0-.61,0-1.21,0-1.89.27.15.49.25.69.38a.44.44,0,0,0,.54,0c.19-.12.4-.22.64-.35,0,.37,0,.69,0,1A.23.23,0,0,1,108.2,4.66Zm-.63-1.15a.23.23,0,0,1-.25,0l-.69-.38,1.59-.87c.12-.07.21,0,.31.07l.6.34Z" />
                            <path
                                d="M73.26,4.2c-.19-.36-.41-.48-.64-.37a.51.51,0,0,1-.42,0,.22.22,0,0,1-.12-.09c0-.07,0-.09.1-.11a1.67,1.67,0,0,0,.45-.34,1.91,1.91,0,0,0,.38-2,2,2,0,0,0-2-1.14l-.24,0a1.85,1.85,0,0,0-1.68,1.48,1.75,1.75,0,0,0,.9,2,6.52,6.52,0,0,1,1.17.76A1.64,1.64,0,0,0,73,4.57C73.14,4.5,73.4,4.45,73.26,4.2ZM71.1,2.94A.83.83,0,0,1,70.31,2,.82.82,0,1,1,72,2,.84.84,0,0,1,71.1,2.94Z" />
                            <path
                                d="M81.75.29A15.3,15.3,0,0,0,79.61.23c-.17,0-.17.09-.17.21,0,1.06,0,2.12,0,3.18,0,.18.07.22.23.22h.94a6.5,6.5,0,0,0,1.21-.07A1.72,1.72,0,0,0,83.25,2,1.71,1.71,0,0,0,81.75.29Zm-.58,2.6a1.92,1.92,0,0,0-.24,0c-.23,0-.31-.07-.29-.3a5.8,5.8,0,0,0,0-.59.66.66,0,0,1,0-.2c0-.2-.16-.5.13-.6a1,1,0,0,1,1.16.41A.86.86,0,0,1,81.17,2.89Z" />
                            <path
                                d="M98.12,2.89c-.07-.1-.1-.17,0-.26a1.22,1.22,0,0,0,.48-1.4A1.27,1.27,0,0,0,97.51.28,15.18,15.18,0,0,0,95.6.23c-.23,0-.3.05-.29.29,0,.91,0,1.83,0,2.74,0,.58,0,.58.57.58s.62,0,.64-.64c0-.09-.08-.24.1-.27a.31.31,0,0,1,.34.14c.12.21.27.4.4.6s.1.17.23.17h1.16C98.51,3.48,98.32,3.18,98.12,2.89ZM96.84,2c-.33,0-.33,0-.33-.54,0-.12-.06-.34.31-.32s.65.14.66.43S97.28,2,96.84,2Z" />
                            <path
                                d="M92.83.15A1.91,1.91,0,0,0,90.8,2a2,2,0,0,0,4.06,0A1.89,1.89,0,0,0,92.83.15Zm0,2.79A.83.83,0,0,1,92,2a.82.82,0,1,1,1.64,0A.83.83,0,0,1,92.85,2.94Z" />
                            <path
                                d="M87.5,3.59c-.11-.24-.21-.48-.32-.73-.35-.8-.71-1.61-1.05-2.42C86.07.31,86,.2,85.85.23,85.5.3,85,0,84.81.36c-.55,1.07-1,2.19-1.47,3.29,0,.06-.1.17,0,.18.35,0,.7,0,1.06,0,.09,0,.12-.09.13-.17.06-.4.32-.49.68-.44a2,2,0,0,0,.49,0c.27,0,.45,0,.5.33a.32.32,0,0,0,.42.3,1.5,1.5,0,0,1,.3,0h.39C87.57,3.85,87.59,3.77,87.5,3.59ZM85.37,2.35c-.21,0-.32,0-.2-.27s.12-.33.19-.49a.9.9,0,0,1,0-.09,1.26,1.26,0,0,1,.22.47C85.79,2.35,85.79,2.34,85.37,2.35Z" />
                            <path class="cls-11"
                                d="M84.34,5.4a.22.22,0,0,1-.23-.24.24.24,0,1,1,.47,0A.25.25,0,0,1,84.34,5.4Z" />
                            <path class="cls-12"
                                d="M89.66,4.88c.07,0,.14,0,.14.13s0,.11-.11.12-.15,0-.15-.12A.12.12,0,0,1,89.66,4.88Z" />
                            <path class="cls-13"
                                d="M88.41,4.91a.21.21,0,0,1,.22.25c0,.14-.07.24-.21.23a.22.22,0,0,1-.25-.24C88.16,5,88.25,4.91,88.41,4.91Z" />
                            <path class="cls-14"
                                d="M97.25,4.91c.17,0,.25.1.24.25s-.09.24-.25.23S97,5.29,97,5.16,97.1,4.91,97.25,4.91Z" />
                            <path d="M119.3,3.84h-.63V1.68h-.54V1.2l1.17-.1Z" />
                            <path
                                d="M121.3,2.65l.16-1.51H123v.49H122l-.07.56a.48.48,0,0,1,.19-.09l.26,0a.75.75,0,0,1,.58.23,1.06,1.06,0,0,1,.2.68.91.91,0,0,1-.23.65.89.89,0,0,1-.71.26,1.18,1.18,0,0,1-.67-.2.61.61,0,0,1-.27-.54h0l.61,0a.3.3,0,0,0,.09.23.36.36,0,0,0,.24.08.28.28,0,0,0,.25-.11A.65.65,0,0,0,122.5,3a.63.63,0,0,0-.08-.35.27.27,0,0,0-.25-.12.31.31,0,0,0-.2,0,.28.28,0,0,0-.11.13Z" />
                            <path
                                d="M126.48,3.84H124.6V3.43l.83-.91a1.52,1.52,0,0,0,.25-.34.59.59,0,0,0,.08-.26.49.49,0,0,0-.07-.25.29.29,0,0,0-.23-.09.27.27,0,0,0-.23.12.57.57,0,0,0-.08.31h-.61a.84.84,0,0,1,.24-.64.93.93,0,0,1,.68-.26,1,1,0,0,1,.69.22.75.75,0,0,1,.24.6.77.77,0,0,1-.14.45,5.85,5.85,0,0,1-.49.59l-.33.39h1Z" />
                            <path
                                d="M128,2.65l.15-1.51h1.59v.49h-1.08l-.07.56a.53.53,0,0,1,.2-.09l.26,0a.72.72,0,0,1,.57.23,1,1,0,0,1,.21.68,1,1,0,0,1-.23.65.91.91,0,0,1-.71.26,1.15,1.15,0,0,1-.67-.2.61.61,0,0,1-.27-.54h0l.61,0a.3.3,0,0,0,.09.23.36.36,0,0,0,.24.08.25.25,0,0,0,.24-.11.54.54,0,0,0,.07-.32.72.72,0,0,0-.08-.35.28.28,0,0,0-.25-.12.31.31,0,0,0-.2,0,.28.28,0,0,0-.11.13Z" />
                            <path
                                d="M134.78,3.12a.28.28,0,0,0-.09-.22,1.36,1.36,0,0,0-.34-.16,2.64,2.64,0,0,1-.75-.35.63.63,0,0,1-.24-.53.64.64,0,0,1,.28-.55,1.36,1.36,0,0,1,1.47,0,.72.72,0,0,1,.27.61h-.61a.35.35,0,0,0-.11-.28.46.46,0,0,0-.31-.09.4.4,0,0,0-.27.09.26.26,0,0,0-.1.2.23.23,0,0,0,.1.19,2,2,0,0,0,.38.18,2.24,2.24,0,0,1,.71.34.69.69,0,0,1,.24.55.65.65,0,0,1-.28.56,1.24,1.24,0,0,1-.73.2,1.31,1.31,0,0,1-.78-.22.74.74,0,0,1-.31-.68h.61a.43.43,0,0,0,.12.34.59.59,0,0,0,.36.1.48.48,0,0,0,.29-.08A.26.26,0,0,0,134.78,3.12Z" />
                            <path
                                d="M139,3.84V1.14h.88a1.38,1.38,0,0,1,.79.19.63.63,0,0,1,.28.55.64.64,0,0,1-.09.34.54.54,0,0,1-.28.23.59.59,0,0,1,.36.21A.7.7,0,0,1,141,3a.74.74,0,0,1-.26.6,1.27,1.27,0,0,1-.76.2Zm.62-1.57h.25a.63.63,0,0,0,.34-.08A.29.29,0,0,0,140.3,2a.3.3,0,0,0-.11-.25.57.57,0,0,0-.33-.08h-.26Zm0,.41v.68H140a.51.51,0,0,0,.3-.08.3.3,0,0,0,.1-.24.33.33,0,0,0-.09-.26.4.4,0,0,0-.29-.1h-.43Z" />
                            <path d="M143.16,3.84h-.63V1h.63Z" />
                            <path
                                d="M144.6,2.82a1.07,1.07,0,0,1,.25-.74,1.05,1.05,0,0,1,1.43,0,1.08,1.08,0,0,1,.26.74v0a1,1,0,0,1-.26.73,1,1,0,0,1-1.43,0,1,1,0,0,1-.25-.73Zm.62,0a.81.81,0,0,0,.08.39.27.27,0,0,0,.27.15.27.27,0,0,0,.26-.15.73.73,0,0,0,.08-.39v0a.73.73,0,0,0-.08-.39.27.27,0,0,0-.26-.15.27.27,0,0,0-.27.15.87.87,0,0,0-.08.39Z" />
                            <path
                                d="M149.16,3.54a.62.62,0,0,1-.23.25.58.58,0,0,1-.33.09.57.57,0,0,1-.48-.22,1.06,1.06,0,0,1-.18-.68V1.83h.62V3a.62.62,0,0,0,.06.32.22.22,0,0,0,.19.09.48.48,0,0,0,.18,0,.57.57,0,0,0,.13-.08V1.83h.62v2h-.5Z" />
                            <path
                                d="M151.8,1.83l0,.29a.69.69,0,0,1,.24-.24.59.59,0,0,1,.32-.08.54.54,0,0,1,.46.2,1,1,0,0,1,.17.63V3.84h-.63V2.63a.45.45,0,0,0-.06-.27.22.22,0,0,0-.18-.08.57.57,0,0,0-.18,0l-.13.1V3.84h-.62v-2Z" />
                            <path
                                d="M155.22,1.33v.5h.32v.44h-.32v.92a.21.21,0,0,0,0,.15.17.17,0,0,0,.12.05h.08l.07,0,0,.46-.17,0h-.18a.64.64,0,0,1-.47-.17.75.75,0,0,1-.16-.52V2.27h-.28V1.83h.28v-.5Z" />
                            <path
                                d="M160.49,3.12a.28.28,0,0,0-.09-.22,1.36,1.36,0,0,0-.34-.16,2.64,2.64,0,0,1-.75-.35.63.63,0,0,1-.24-.53.64.64,0,0,1,.28-.55,1.36,1.36,0,0,1,1.47,0,.72.72,0,0,1,.27.61h-.61a.35.35,0,0,0-.11-.28.46.46,0,0,0-.31-.09.38.38,0,0,0-.27.09.23.23,0,0,0-.1.2.21.21,0,0,0,.1.19,2,2,0,0,0,.38.18,2.24,2.24,0,0,1,.71.34.69.69,0,0,1,.24.55.65.65,0,0,1-.28.56,1.25,1.25,0,0,1-.74.2,1.29,1.29,0,0,1-.77-.22A.74.74,0,0,1,159,3h.61a.43.43,0,0,0,.12.34.58.58,0,0,0,.35.1.49.49,0,0,0,.3-.08A.26.26,0,0,0,160.49,3.12Z" />
                            <path
                                d="M163.28,1.33v.5h.32v.44h-.32v.92a.21.21,0,0,0,.05.15.17.17,0,0,0,.12.05h.07l.08,0,0,.46-.17,0h-.18a.61.61,0,0,1-.47-.17.7.7,0,0,1-.16-.52V2.27h-.28V1.83h.28v-.5Z" />
                            <path d="M165.74,3.84h-.62V3.31h.62Z" />
                            <path
                                d="M170.08,2.81v1h-.63V1.14h.94a1.16,1.16,0,0,1,.75.22.71.71,0,0,1,.27.59.61.61,0,0,1-.11.36.73.73,0,0,1-.32.24.61.61,0,0,1,.35.24.68.68,0,0,1,.11.41v.17a1.12,1.12,0,0,0,0,.24.32.32,0,0,0,.11.19v0h-.65a.34.34,0,0,1-.09-.2,1.32,1.32,0,0,1,0-.27V3.2a.38.38,0,0,0-.11-.29.37.37,0,0,0-.29-.1Zm0-.49h.32a.5.5,0,0,0,.29-.08.34.34,0,0,0,.1-.25.37.37,0,0,0-.11-.27.4.4,0,0,0-.29-.1h-.31Z" />
                            <path
                                d="M174.14,3.84a.35.35,0,0,1-.06-.14,1,1,0,0,1,0-.17.85.85,0,0,1-.2.25.47.47,0,0,1-.32.1.69.69,0,0,1-.49-.16.61.61,0,0,1-.17-.45.54.54,0,0,1,.22-.46,1.24,1.24,0,0,1,.68-.16H174V2.51a.3.3,0,0,0-.06-.2.29.29,0,0,0-.35,0,.25.25,0,0,0-.05.16H173a.52.52,0,0,1,.22-.46,1.08,1.08,0,0,1,.64-.18,1,1,0,0,1,.61.18.66.66,0,0,1,.23.53v.76a2.83,2.83,0,0,0,0,.3,2.76,2.76,0,0,0,.08.27Zm-.45-.41a.46.46,0,0,0,.21-.05.29.29,0,0,0,.12-.13V3h-.25a.29.29,0,0,0-.22.07.28.28,0,0,0-.06.18.17.17,0,0,0,0,.14A.25.25,0,0,0,173.69,3.43Z" />
                            <path d="M176.78,3.84h-.62V1h.62Z" />
                            <path
                                d="M179.2,3.88a.93.93,0,0,1-.72-.28,1,1,0,0,1-.25-.7V2.83a1.16,1.16,0,0,1,.24-.75.84.84,0,0,1,.7-.28.79.79,0,0,1,.63.24.94.94,0,0,1,.23.67V3h-1.16a.4.4,0,0,0,.12.26.44.44,0,0,0,.29.1,1.26,1.26,0,0,0,.3,0,1.61,1.61,0,0,0,.28-.1l.15.38a1,1,0,0,1-.35.16A1.43,1.43,0,0,1,179.2,3.88Zm0-1.6a.27.27,0,0,0-.22.09.61.61,0,0,0-.08.26h.55V2.59a.37.37,0,0,0-.06-.23A.23.23,0,0,0,179.17,2.28Z" />
                            <path d="M182.09,1.37h-.63V1h.63Zm0,2.47h-.63v-2h.63Z" />
                            <path
                                d="M183.53,2.84a1.29,1.29,0,0,1,.2-.76.67.67,0,0,1,.58-.28.53.53,0,0,1,.28.07.58.58,0,0,1,.2.21l0-.25h.56v2a.73.73,0,0,1-.27.61,1.14,1.14,0,0,1-.75.22,1.29,1.29,0,0,1-.33,0,1.75,1.75,0,0,1-.32-.12l.1-.46.26.09a1.2,1.2,0,0,0,.28,0,.47.47,0,0,0,.3-.08.31.31,0,0,0,.1-.26V3.66a.51.51,0,0,1-.2.16.53.53,0,0,1-.26.06.67.67,0,0,1-.57-.28,1.14,1.14,0,0,1-.2-.72Zm.62,0a.81.81,0,0,0,.07.38.26.26,0,0,0,.24.14.48.48,0,0,0,.18,0,.4.4,0,0,0,.12-.1V2.43a.25.25,0,0,0-.12-.11.33.33,0,0,0-.17,0,.25.25,0,0,0-.24.15,1,1,0,0,0-.08.41Z" />
                            <path
                                d="M187.49,2.08a.73.73,0,0,1,.22-.21A.59.59,0,0,1,188,1.8a.61.61,0,0,1,.49.21,1.06,1.06,0,0,1,.18.68V3.84H188V2.68a.56.56,0,0,0-.06-.31.19.19,0,0,0-.18-.09.48.48,0,0,0-.18,0,.38.38,0,0,0-.13.09V3.84h-.62V1h.62Z" />
                            <path d="M194.53,3.84h-.62l-1-1.7h0V3.84h-.63V1.14h.63l1,1.7h0V1.14h.62Z" />
                            <path
                                d="M198.17,2.93h0a.91.91,0,0,1-.26.7,1.12,1.12,0,0,1-.76.24,1.06,1.06,0,0,1-.81-.31,1.09,1.09,0,0,1-.3-.8V2.21a1.12,1.12,0,0,1,.29-.8,1,1,0,0,1,.77-.31,1.19,1.19,0,0,1,.8.24.82.82,0,0,1,.27.7h-.61a.5.5,0,0,0-.11-.36.49.49,0,0,0-.35-.11.37.37,0,0,0-.32.17.79.79,0,0,0-.11.45v.57a.81.81,0,0,0,.12.46.48.48,0,0,0,.67.06.56.56,0,0,0,.09-.36Z" />
                            <path
                                d="M203.6,3.84h-1.88V3.43l.83-.91a1.81,1.81,0,0,0,.24-.34.48.48,0,0,0,.08-.26.41.41,0,0,0-.07-.25.27.27,0,0,0-.22-.09.26.26,0,0,0-.23.12.49.49,0,0,0-.08.31h-.62a.85.85,0,0,1,.25-.64.91.91,0,0,1,.68-.26,1,1,0,0,1,.68.22.75.75,0,0,1,.24.6.77.77,0,0,1-.13.45,5.85,5.85,0,0,1-.49.59l-.33.39h1Z" />
                            <path
                                d="M206.93,1.62a3.27,3.27,0,0,0-.59.9,2.86,2.86,0,0,0-.16,1v.35h-.62V3.49a2.51,2.51,0,0,1,.19-1,3.3,3.3,0,0,1,.58-.87H205V1.14h2Z" />
                            <path
                                d="M209.48,1.1a1.12,1.12,0,0,1,.27,0,2.05,2.05,0,0,1,.28.08l-.11.46-.22-.06-.22,0a.47.47,0,0,0-.37.17.74.74,0,0,0-.14.48v0a.72.72,0,0,1,.25-.16.9.9,0,0,1,.34,0,.61.61,0,0,1,.53.25,1,1,0,0,1,.19.65.86.86,0,0,1-.26.66,1,1,0,0,1-1.4,0,1.14,1.14,0,0,1-.27-.8V2.25a1.07,1.07,0,0,1,1.13-1.15Zm-.13,1.43a.73.73,0,0,0-.23,0,.4.4,0,0,0-.15.1v.12a.79.79,0,0,0,.1.45.3.3,0,0,0,.27.16.27.27,0,0,0,.23-.13.5.5,0,0,0,.09-.31.48.48,0,0,0-.09-.31A.26.26,0,0,0,209.35,2.53Z" />
                            <path
                                d="M213.59,2.85a1.09,1.09,0,0,1-.26.76.9.9,0,0,1-.68.27.92.92,0,0,1-.69-.27,1.09,1.09,0,0,1-.25-.76V2.13a1,1,0,0,1,.25-.75.87.87,0,0,1,.68-.28.89.89,0,0,1,.69.28,1.05,1.05,0,0,1,.26.75ZM213,2.09a.77.77,0,0,0-.08-.38.29.29,0,0,0-.24-.13.28.28,0,0,0-.23.13.77.77,0,0,0-.08.38v.8a.8.8,0,0,0,.08.38.29.29,0,0,0,.24.13.28.28,0,0,0,.23-.13.8.8,0,0,0,.08-.38Z" />
                            <path
                                d="M216,2.23a.36.36,0,0,0,.26-.09.35.35,0,0,0,.09-.25.27.27,0,0,0-.1-.22.33.33,0,0,0-.25-.09.37.37,0,0,0-.2.07.26.26,0,0,0-.08.19h-.61v0a.6.6,0,0,1,.25-.52,1.06,1.06,0,0,1,.64-.2,1.17,1.17,0,0,1,.71.2.7.7,0,0,1,.26.57.51.51,0,0,1-.11.34.73.73,0,0,1-.3.24.87.87,0,0,1,.34.24.65.65,0,0,1,.12.39.7.7,0,0,1-.29.59,1.19,1.19,0,0,1-.73.21,1.14,1.14,0,0,1-.66-.2A.63.63,0,0,1,215,3.1h.61a.29.29,0,0,0,.09.22.32.32,0,0,0,.23.09.37.37,0,0,0,.28-.1.3.3,0,0,0,.11-.23.37.37,0,0,0-.1-.29.44.44,0,0,0-.29-.09h-.3V2.23Z" />
                            <path class="cls-5"
                                d="M96.47,5.21a.34.34,0,0,0,0-.45.85.85,0,0,0-.82-.15c-.23,0-.08.3-.11.46a1.22,1.22,0,0,0,0,.33c0,.12-.07.27.14.31s.24-.1.29-.26a1.79,1.79,0,0,0,.27.24.23.23,0,0,0,.25,0c.07,0,0-.13,0-.17S96.41,5.3,96.47,5.21Zm-.67,0V4.88c.21-.06.32,0,.32.16S95.8,5.17,95.8,5.17Z" />
                            <path class="cls-5"
                                d="M95.35,5.44c-.09-.22-.19-.44-.29-.66s-.12-.22-.28-.18-.2,0-.25.14l-.3.73c0,.07-.1.14,0,.21a.2.2,0,0,0,.27,0,.35.35,0,0,1,.58,0,.25.25,0,0,0,.31,0C95.47,5.61,95.38,5.51,95.35,5.44Zm-.67-.29.09-.24.12.24Z" />
                            <path class="cls-5"
                                d="M101.54,4.67c-.08-.16-.38-.1-.46.07s-.21.48-.31.72c0,.07-.08.15,0,.22a.18.18,0,0,0,.24,0,.41.41,0,0,1,.65,0,.2.2,0,0,0,.32,0C101.82,5.28,101.7,5,101.54,4.67Zm-.33.53.14-.34.13.34Z" />
                        </g>
                    </g>
                </svg>